<?xml version="1.0" standalone="no"?>
<!DOCTYPE svg PUBLIC "-//W3C//DTD SVG 20010904//EN"
 "http://www.w3.org/TR/2001/REC-SVG-20010904/DTD/svg10.dtd">
<svg version="1.0" xmlns="http://www.w3.org/2000/svg"
 width="255.000000pt" height="255.000000pt" viewBox="0 0 255.000000 255.000000"
 preserveAspectRatio="xMidYMid meet">
<metadata>
Created by potrace 1.11, written by Peter Selinger 2001-2013
</metadata>
<g transform="translate(0.000000,255.000000) scale(0.100000,-0.100000)"
fill="#000000" stroke="none">
<path d="M1225 2423 c-218 -11 -421 -79 -610 -206 -87 -58 -234 -209 -295
-302 -102 -157 -150 -284 -186 -495 -8 -47 -8 -234 0 -290 67 -464 404 -848
844 -960 113 -29 126 -30 252 -35 531 -21 996 315 1144 827 32 112 41 179 41
313 -1 168 -11 235 -60 380 -136 407 -537 725 -960 761 -99 8 -118 9 -170 7z"/>
</g>
</svg>
