<svg width="88" height="21" fill="none" xmlns="http://www.w3.org/2000/svg"><path d="M87.09 19.506c-2.11 1.353-3.86.884-5.52.884-25.059.036-50.118.027-75.177.018-1.371 0-2.76.045-4.105-.163-.523-.081-1.1-.722-1.362-1.245-.135-.27.388-1.254.578-1.236 3.193.172 5.349-4.176 6.594-3.761 5.935 1.993 8.876-1.985 12.737-4.71 1.308-.92 3.671-.468 5.24 1.03 3.69 3.526 6.063 1.632 7.966-2.013.397-.757.758-1.542 1.145-2.309 3.356-6.694 7.587-7.208 11.745-1.137 2.625 3.834 5.377 5.368 9.896 3.05 3.437-1.76 5.566 1.091 7.108 3.41 1.741 2.607 3.491 3.536 6.396 2.237.74-.334 1.813-.55 2.507-.262 4.655 1.93 9.237 4.005 14.253 6.207z" fill="#D1EBEC"/></svg>

