<svg width="646" height="516" fill="none" xmlns="http://www.w3.org/2000/svg"><path d="M403.464.09c79.417 0 158.825.027 238.242-.09 3.419-.009 4.285.523 4.285 4.159-.117 169.152-.126 338.305.018 507.457 0 3.969-1.119 4.375-4.591 4.375-212.291-.09-424.572-.09-636.863.009C.975 516 0 515.45 0 511.58.126 342.599.126 173.627 0 4.646 0 .577 1.137 0 4.844 0 136.69.1 268.525.09 400.37.09c-.118 4.97-.316 9.941-.334 14.903-.117 26.63-.181 53.26-.271 79.88-.947-.37-2.057-.532-2.823-1.127-13.883-10.852-28.505-20.432-45.13-26.62l.027-2.076c1.109.56 1.75.055 2.138-.974.288-.198.974-.261.261-.785l-.406.65c-1.01-.235-1.596.252-1.93 1.154-.875.424-1.416 1.02-1.083 2.075l.073-.054c-.668.036-1.335.063-2.003.1-4.889-.415-9.634-1.57-14.722-.614-12.791 2.39-22.253 9.833-30.715 19.025-1.172.045-2.345.054-3.509.163-.893.08-2.408-.289-2.192 1.154.163 1.074 1.696.686 2.625.93-7.965 9.995-17.454 18.339-29.614 22.39-16.3 5.43-33.142 5.719-50.001 2.318-1.137-2.806-2.228-5.638-4.267-7.957 4.997-2.688 6.549-7.469 7.631-12.539 3.275-2.084 2.012-4.32.009-6.278-2.201-2.138-5.141-2.923-8.064-2.553-2.318.297-4.086-.063-6.197-1.1-3.356-1.652-7.081-1.507-10.184.92-2.941 2.3-3.094 5.691-2.246 8.93.766 2.923.974 5.8.234 8.976 6.531-1.02 5.277-8.967 10.59-10.645 1.245 3.347 1.191 6.982 3.654 9.644-.163 1.064-.334 2.12-.497 3.184-3.851 1.028-5.186 4.366-6.828 7.424-1.353-.171-2.724-.297-4.068-.532-17.23-2.959-34.522-5.548-52.013-2.616-19.99 3.347-31.554 12.476-35.622 31.691-2.183 10.302-1.588 20.856-1.236 31.293.46 13.775-4.7 24.871-14.361 34.343-8.822 8.642-18.664 16.13-27.305 25.016-16.58 17.049-15.543 36.318.126 53.359 3.13 3.41 6.91 6.188 9.526 10.085-3.762 3.103-8.01 2.201-12.169 1.299-2.499-.541-4.853-1.741-7.352-2.273-12.62-2.688-21.785 9.201-17.78 22.985 2.887 9.932 2.328 11.421-6.188 16.617-9.931 6.053-11.05 14.199-2.435 22.164 7.469 6.911 14.56 13.757 18.465 23.581 2.364 5.936 7.956 7.226 13.838 4.24 3.32-1.687 6.278-4.086 9.4-6.161.026 16.472.062 32.953.09 49.426-9.382.334-17.086 3.608-21.389 12.53-1.082 2.246-1.38 4.05 2.427 4.023 24.545-.198 49.099-.189 73.644-.252h2.977l2.066-.027h21.739l5.07.027c.73 0 1.452-.009 2.183-.009l28.911.027c1.019-.009 2.029-.027 3.049-.036 9.607 0 19.213-.009 28.82-.009.758 0 1.525-.009 2.283-.009 6.648.063 13.296.126 19.944.198 1.38.018 2.742.126 3.239-1.678 2.11-7.74 8.028-8.904 14.82-8.534.316 3.058.524 6.135.975 9.175.956 6.45-.118 12.286-3.374 18.132-3.22 5.782-5.241 12.232-5.71 18.998-1.281.668-1.182 1.885-1.209 3.049-5.322.253-10.752-.117-16.21 2.445 18.149 5.629 58.093 4.97 68.926-.749-6.314-.938-11.943-1.768-17.563-2.607-.712-.388-1.416-.776-2.129-1.164.244-2.85-1.56-3.103-3.707-2.914l.045-.424.415-.09c.009-.631.027-1.263.036-1.903.171-1.534.208-3.094.541-4.583 2.788-12.44 6.991-24.853.469-37.41 23.77 0 47.539.009 71.308.009 6.684.018 13.369.172 20.053.009 4.808-.117 8.75 1.245 11.591 5.25-4.113 12.052-3.933 24.799-6.016 37.176-.343 2.057 1.65 2.905 1.614 4.628-2.94.081-6.089-1.011-8.623 1.461-2.977 2.652-7.352 1.2-11.213 3.789 23.805 4.303 46.817 4.745 70.334-.144-5.449-2.698-11.375-1.236-16.21-4.114 1.894-2.58 1.326-5.277.541-8.083-1.471-5.25-2.941-10.599-5.819-15.173-2.985-4.745-3.382-9.409-2.065-14.542 38.518-.054 77.045-.099 115.562-.153 26.034.063 52.058.063 78.092.279 4.14.036 3.851-2.309 3.671-4.934-.162-2.436 1.299-5.765-3.518-5.566-4.952.207-9.923-.09-14.884-.171-2.625-10.104-6.107-13.559-14.451-14.29 3.726-2.345 7.397-4.772 11.177-7.018 3.256-1.94 3.878-3.59.108-5.71-3.545-1.994-6.91-4.303-10.356-6.468l2.138-8.453c2.878-1.768 5.764-3.527 8.633-5.322 2.715-1.705 3.112-3.392.036-5.215-2.607-1.542-5.115-3.247-7.659-4.88-.036-3.59-.072-7.181-.099-10.762 5.476-4.574 11.573-7.09 18.88-6.053 1.849.262 3.789-.135 5.647.063 3.311.361 4.51-.803 4.447-4.267a875.963 875.963 0 01.009-31.889c.063-3.401-1.046-4.483-4.384-4.42-8.912.153-17.824.018-26.737-.009-.694-12.999-1.389-26.008-2.093-39.007.037-3.68.082-7.37.118-11.051 3.319.587 4.618-.64 4.465-4.14-.208-4.682-1.371-9.075-2.751-13.487-.92-2.922-2.661-4.663-5.765-4.934-.595-.09-1.19-.19-1.786-.28l-1.326-5.097c.442-.92 1.074-1.795 1.29-2.76.83-3.852-.866-7.902 1.146-11.781.649-1.254-.713-3.013-2.246-3.663-2.012-.848-4.574-1.001-5.692.812-1.552 2.517-3.969 2.869-6.179 3.933-4.926 2.373-5.882 5.683-2.724 9.328.216 4.925 3.743 7.559 7.135 10.293-1.678.992-2.878 2.417-3.744 4.14-2.535.054-5.069.271-7.586.109-3.608-.226-4.402 1.362-3.662 4.6.748 3.266 1.208 6.595 1.795 9.896-1.66 2.743-1.741 5.007 1.885 6.126.09 1.966-.135 4.041 2.76 4.339 1.759.18 1.489 1.903 1.804 3.112a516.237 516.237 0 01-.496 3.888c-.117.099-.352.216-.343.298.046.261.172.514.271.766l-.595 10.356c-1.669-2.146-3.41-4.248-5.007-6.449-11.447-15.868-16.147-33.342-12.051-52.728 2.895-13.694 6.269-27.28 9.093-40.982 2.48-12.034 3.292-24.267-1.534-35.877-8.173-19.657-28.442-31.871-49.857-29.904-7.207.658-14.36.55-21.532.839-20.251.82-37.507-7.325-54.205-17.609-5.502-3.392-9.976-8.444-16.417-10.33-.027-32.637-.063-65.284-.09-97.922.234-.379.505-.73.776-1.083zm-90.756 68.055c-.343-.343-.677-.686-1.02-1.038-1.163-1.795-2.526-3.365-5.62-4.871 1.832 2.905 2.986 4.655 5.395 5.079.045.667.397 1.019 1.073 1.019-.135 1.2.505 1.903 1.534 2.327.072.028.351-.198.36-.324.091-1.236-.802-1.732-1.722-2.192zm221.247 17.554c20.288 0 40.566 0 60.853-.009 1.371 0 2.77.064 4.114-.144 1.262-.19 1.632-1.083 1.073-2.273-.406-.866-14.433-8.02-15.38-7.821-.496.099-1.083.18-1.443.487-3.924 3.238-6.18.658-8.353-2.337-4.709-6.477-8.705-7.117-15.011-2.426-4.492 3.346-8.299 2.589-11.032-2.4-1.308-2.39-2.111-5.07-3.328-7.514-3.491-7.028-9.03-7.74-14.28-1.985-2.544 2.797-5.25 5.44-7.839 8.191-1.804 1.921-3.716 2.012-6.044.911-8.082-3.816-8.813-3.608-14.279 3.753-2.625 3.536-5.602 5.448-10.04 3.094-2.896-1.534-6.36-1.416-8.038 1.083-3.121 4.654-7.054 5.818-12.222 5.376-1.931-.171-4.799.55-4.583 2.923.181 2.03 2.896 1.028 4.456 1.028 20.468.09 40.927.063 61.376.063zM169.091 75.506c-5.016-2.21-9.598-4.285-14.244-6.207-.685-.288-1.759-.063-2.507.262-2.905 1.29-4.655.37-6.396-2.237-1.543-2.319-3.671-5.16-7.108-3.41-4.52 2.31-7.271.776-9.896-3.05-4.158-6.07-8.389-5.556-11.745 1.137-.387.767-.748 1.543-1.145 2.31-1.904 3.644-4.276 5.538-7.965 2.011-1.57-1.497-3.933-1.948-5.241-1.028-3.87 2.724-6.802 6.703-12.737 4.709-1.245-.415-3.41 3.933-6.594 3.762-.19-.01-.713.974-.578 1.236.262.523.84 1.163 1.362 1.244 1.344.208 2.734.163 4.105.163 25.059.009 50.118.018 75.177-.018 1.651 0 3.401.469 5.512-.884z" fill="#FEFEFE"/><path d="M399.765 94.883c.081-26.63.154-53.26.271-79.88.018-4.971.216-9.942.334-14.903h2.065l.217 1.046c.027 32.638.063 65.285.09 97.923-.063 16.472-.117 32.935-.18 49.408v15.759c.234 3.176-1.146 6.694 1.975 9.256.604 1.831 1.921 3.5 1.29 5.62-.117.866-.235 1.732-.343 2.598-2.643 1.705-5.313 2.959-8.236.577 1.137-2.201 5.223-1.1 5.178-4.618-.748-1.345-1.506-2.698-2.255-4.042-.866-3.112.343-6.215.009-9.328l-.081-15.94c-.117-17.825-.226-35.651-.334-53.476z" fill="#099B7C"/><path d="M402.652 1.136c-.072-.352-.145-.703-.217-1.046h1.029c-.271.352-.542.703-.812 1.046zm-.09 147.331c.063-16.472.117-32.935.18-49.407 6.441 1.885 10.906 6.937 16.417 10.329 16.688 10.284 33.954 18.429 54.205 17.609 7.18-.289 14.334-.181 21.532-.839 21.415-1.967 41.684 10.247 49.857 29.904 4.826 11.61 4.014 23.843 1.533 35.877-2.823 13.702-6.197 27.288-9.092 40.982-4.096 19.386.595 36.851 12.051 52.727 1.588 2.211 3.329 4.303 5.007 6.45.442 8.092.893 16.175 1.335 24.267-7.884 0-15.759.072-23.643-.027-3.23-.036-4.493 1.082-4.42 4.519.207 10.131.297 20.271-.036 30.392-.154 4.601 1.317 5.936 5.836 5.755 4.907-.198 10.202-1.443 14.739.713 5.954 2.842 11.421 6.703 17.699 10.482-5.331 3.266-10.094 6.225-14.911 9.121-5.809 3.491-5.827 4.068.108 7.686 4.736 2.886 9.49 5.737 14.866 8.975-5.584 3.383-10.41 6.297-15.218 9.229-5.268 3.211-5.277 3.978-.171 7.081 4.934 2.995 9.877 5.99 15.416 9.364-3.527 2.039-6.459 3.744-9.39 5.44-3.681-2.174-5.746-5.747-7.993-9.184-5.25-8.028-10.166-9.309-18.681-4.799-4.087 2.165-7.965 4.709-12.052 6.874-6.946 3.69-13.522 3.176-19.448-2.255-2.778-2.544-5.458-5.205-8.29-7.704-7.198-6.342-13.567-6.657-21.343-.974-3.184 2.327-6.107 4.997-9.273 7.343-8.759 6.495-15.506 6.035-23.255-1.768-4.212-4.249-8.118-8.805-12.169-13.216 1.371-.027 2.752-.072 4.123-.072 22.344-.009 44.697-.045 67.041.009 4.988.009 8.254-1.741 8.876-7.1 1.064-9.246.478-18.511.298-27.766-.009-.55-.749-1.092-1.155-1.633 1.696-1.497 1.119-3.509 1.119-5.331.027-66.332.018-132.654.018-198.985 0-8.227-1.705-9.923-9.95-9.932-30.598-.054-61.178-.09-91.766-.136zM79.616 293.227c-2.607-3.897-6.396-6.685-9.526-10.085-15.66-17.041-16.697-36.31-.126-53.36 8.632-8.885 18.483-16.373 27.305-25.015 9.661-9.472 14.821-20.568 14.361-34.343-.352-10.437-.938-20.991 1.236-31.293 4.068-19.215 15.632-28.344 35.622-31.691 17.482-2.932 34.774-.334 52.012 2.616 1.345.235 2.716.361 4.069.532.676 2.454-2.923 4.781-.226 7.298.505 3.825-1.966 7.406-.893 11.276-.018 2.048-.027 4.096-.045 6.144-1.939 5.701.803 9.679 4.844 13.179-20.45.045-40.899.091-61.349.145-8.046.018-9.598 1.569-9.598 9.652-.009 66.34-.009 132.69.009 199.03 0 1.669-.487 3.446.605 5.007-.136.126-.253.27-.361.415-.081 9.832-.172 19.674-.244 29.507-.018 2.689 1.038 4.592 3.942 5.007-2.697 9.986-4.474 20.225-8.037 29.977-3.879-1.823-7.704-3.771-11.646-5.44-6.458-2.742-9.336-2.093-14.27 2.905-1.804 1.822-3.482 3.825-6.215 4.303-3.708-6.522-4.33-13.829-4.98-21.019-.91-10.086.623-19.991 3.284-29.733 1.335.315 2.661.667 3.996.956 8.732 1.894 15.037-3.843 12.899-12.368-1.677-6.702-.279-11.438 5.332-15.624 5.628-4.204 6.124-9.328.856-13.252-6.287-4.682-6.567-9.643-3.635-16.048 2.102-4.601 1.904-9.337-2.381-12.594-5.873-4.465-8.579-10.085-9.454-17.383-.938-7.839-6.874-10.464-13.99-6.793-2.563 1.317-4.719 3.392-7.118 5.043-1.921 1.308-3.563 3.293-6.278 3.049zM399.765 94.882l.325 53.468c-2.048.09-4.104.252-6.161.252-51.165.055-102.33.082-153.494.118a1.126 1.126 0 00-.785-.271c.55-3.726 1.732-7.451-.181-11.141 2.355.379 3.284-1.019 4.024-2.968 1.208-3.193 2.706-6.287 3.897-9.49.559-1.506 2.164-3.076.414-5.313-2.164 2.372-2.715 5.088-3.806 7.487-4.186 9.211-1.389 7.785-11.727 6.91 0-.225-.009-.451-.027-.676-.036-.875.144-1.859-1.055-2.174l.018.018v-2.147c-.424-.271-.848-.533-1.263-.803-2.977-.668-6.071 1.037-9.003-.46.505-5.043.099-10.068-.18-15.101 16.859 3.401 33.701 3.112 50.001-2.319 12.16-4.05 21.649-12.395 29.614-22.39 2.481-.433 5.151.424 7.83-.749-1.452-2.146-3.31-1.019-4.754-1.488 8.471-9.201 17.924-16.635 30.716-19.025 5.087-.948 9.832.207 14.721.613-.361.668-.731 1.344-1.091 2.012-.253.325-.506.658-.767.983.198.072.388.154.586.226.027-.424.063-.848.09-1.272 1.768.424 2.553-.695 3.185-2.048l-.072.054c.333 0 .667-.018.992-.045 16.625 6.188 31.247 15.778 45.13 26.62.767.587 1.876.75 2.823 1.12zM312.69 105.33c.875-.415 1.722-.875 1.759-1.994 0-.126-.497-.433-.605-.379-.929.487-1.407 1.254-1.182 2.346-.523-.027-1.109-.1-.577.721.199-.234.406-.469.605-.694zm24.662 6.278c.703-6.648 4.14-11.925 7.785-17.374 4.185-6.26 1.659-15.345-4.565-20.297-5.475-4.357-14.261-4.366-19.575-.027-6.413 5.24-8.731 13.684-4.474 20.225 3.581 5.502 6.91 10.861 7.596 17.509-1.092 4.069 1.84 6.829 3.617 9.743 1.452 2.391 4.654 2.3 6.125.009 1.849-2.878 4.636-5.728 3.491-9.788zm26.376-24.825c-3.049-1.344-6.125-1.227-9.21-.063 3.058 1.299 6.125 1.226 9.21.063zm-10.013 23.743c.325-.325.65-.659.983-.983a4456.17 4456.17 0 00-7.198-6.757c-.117.144-.235.289-.361.433l6.576 7.307zm-46.844.559c1.822-1.263 3.185-2.111 4.041-5.169-2.047 1.886-3.671 2.481-4.041 5.169z" fill="#D1EBEC"/><path d="M79.616 293.227c2.715.243 4.357-1.741 6.287-3.067 2.4-1.642 4.555-3.726 7.117-5.043 7.117-3.672 13.053-1.047 13.991 6.793.875 7.298 3.581 12.927 9.454 17.383 4.284 3.257 4.483 7.993 2.381 12.593-2.932 6.405-2.643 11.367 3.635 16.049 5.268 3.933 4.772 9.057-.857 13.252-5.61 4.185-6.999 8.93-5.331 15.624 2.138 8.525-4.167 14.262-12.899 12.368-1.335-.289-2.67-.641-3.996-.957-1.768-1.01-3.59-1.948-5.304-3.049-4.79-3.103-9.706-5.06-15.335-2.174-.082-2.571-.027-5.16-.289-7.713-.334-3.301 1.119-5.06 4.159-6.107 2.742-.947 5.349-2.3 7.992-3.527 4.176-1.94 8.127-2.869 11.42 1.633.586.803 1.56 2.309 2.868.956.848-.884.19-2.075-.631-2.688-4.6-3.464-1.813-4.817 1.651-6.035 1.127-.397 2.309-.74 3.328-1.335.929-.542 1.516-1.57.857-2.616-.622-.993-1.416-.262-2.201.063-3.455 1.443-6.919 2.877-10.428 4.158-1.2.433-2.543 1.642-3.833.506-1.38-1.218.153-2.517.225-3.798.081-1.543 2.355-3.717.036-4.457-2.697-.857-2.58 2.391-2.832 3.843-.947 5.431-3.563 8.958-9.057 10.492-2.598.73-3.563.261-3.509-2.373.027-1.714.063-3.437-.009-5.151-.631-15.958.776-17.167 16.418-16.626 1.894.064 4.005.623 6.016-.866-2.886-3.752-7.315-.992-10.888-3.139 3.374-2.499 6.342-4.754 9.382-6.91 1.353-.965 3.689-1.687 2.255-3.717-1.272-1.795-2.607.172-3.825.975-1.425.938-2.462 2.625-4.312 2.796-.811-1.398-.036-2.291.18-3.256.2-.884.145-1.823-.92-2.057-1.352-.298-1.957.649-1.867 1.786.524 6.396-4.609 8.741-8.533 11.854-2.255 1.786-4.05 1.867-3.933-1.958.144-4.808.036-9.616 0-14.434-.009-.802.126-1.885-.983-2.074-1.326-.226-1.795.83-1.94 1.858-.171 1.182-.126 2.4-.126 3.599-.009 7.56-.063 15.12.027 22.679.036 2.679-.947 3.112-2.95 1.66-4.014-2.905-7.974-5.665-8.515-11.448-.379-4.014-1.984-7.902-2.968-11.871-.316-1.263.036-3.194-2.12-2.544-1.452.442-1 1.966-.721 3.121a461.832 461.832 0 002.138 8.435c.379 1.443 1.47 3.148-.325 4.122-1.732.947-2.697-.911-3.852-1.831-.27-.217-.487-.487-.749-.704-.947-.784-2.056-1.723-3.12-.523-1.173 1.317.126 2.039 1.09 2.797 3.401 2.688 6.766 5.421 10.744 8.624-4.474.523-8.01.938-11.546 1.335-1.155.135-2.724-.072-2.598 1.66.117 1.678 1.723 1.497 2.841 1.38 3.726-.406 7.47-.803 11.14-1.507 6.351-1.217 11.466 2.833 11.484 9.364.027 8.074-.018 16.148-.027 24.222-3.121 2.074-6.08 4.474-9.4 6.161-5.872 2.986-11.474 1.687-13.837-4.24-3.906-9.824-10.996-16.671-18.465-23.581-8.615-7.965-7.496-16.111 2.435-22.164 8.525-5.188 9.075-6.676 6.188-16.617-3.996-13.784 5.16-25.665 17.78-22.986 2.499.533 4.853 1.732 7.352 2.274 4.15.929 8.398 1.822 12.16-1.272z" fill="#02B59E"/><path d="M423.949 399.404c4.051 4.412 7.956 8.967 12.169 13.216 7.749 7.803 14.505 8.263 23.255 1.768 3.166-2.345 6.089-5.015 9.273-7.343 7.776-5.683 14.145-5.367 21.343.974 2.823 2.49 5.503 5.16 8.29 7.704 5.935 5.431 12.502 5.936 19.448 2.256 4.087-2.165 7.974-4.709 12.052-6.874 8.515-4.52 13.422-3.239 18.681 4.799 2.247 3.437 4.312 7.009 7.993 9.183-5.476 4.357-11.33 6.775-18.7 6.306-9.959-.641-9.986-.163-9.95 9.995-38.518.054-77.045.099-115.562.153.018-5.511.045-11.023.063-16.535 1.732-8.633 4.727-17.005 5.602-25.827 1.389-.018 2.778-.027 4.167-.045l.442.189.469-.099c.316.099.641.162.965.18z" fill="#01599A"/><path d="M527.812 441.388c-.045-10.158-.009-10.636 9.95-9.995 7.379.469 13.224-1.958 18.7-6.306 2.931-1.696 5.863-3.401 9.39-5.44-5.539-3.365-10.482-6.369-15.416-9.363-5.106-3.095-5.097-3.87.171-7.082 4.808-2.932 9.625-5.837 15.218-9.228-5.367-3.248-10.13-6.09-14.866-8.976-5.935-3.618-5.917-4.195-.108-7.686 4.817-2.896 9.58-5.855 14.911-9.12-6.269-3.78-11.736-7.641-17.699-10.483-4.537-2.165-9.823-.911-14.739-.712-4.519.18-5.99-1.155-5.836-5.756.324-10.121.243-20.261.036-30.391-.073-3.428 1.199-4.556 4.42-4.52 7.884.09 15.759.027 23.643.027 2.381-.018 4.763-.027 7.144-.045 2.643.451 5.286.451 7.929.027 2.634-.018 5.268-.027 7.902-.045 8.912.018 17.825.153 26.737.009 3.338-.054 4.447 1.028 4.384 4.42a875.963 875.963 0 00-.009 31.889c.063 3.464-1.136 4.628-4.447 4.267-1.867-.198-3.798.199-5.647-.063-7.307-1.037-13.405 1.471-18.871 6.053-2.941 1.371-7.731 2.824-7.695 5.16.055 3.122 4.817 4.069 7.794 5.602 2.553 1.633 5.061 3.338 7.659 4.881 3.076 1.822 2.679 3.518-.036 5.214-2.86 1.795-5.756 3.545-8.624 5.322a4204.912 4204.912 0 00-8.092 4.583c1.949 2.255 3.897 3.157 5.954 3.879 3.446 2.165 6.811 4.474 10.356 6.468 3.761 2.12 3.148 3.78-.109 5.71-3.779 2.246-7.46 4.673-11.176 7.018-1.822.551-3.446 1.426-5.088 3.122 6.594 3.77 12.566 8.308 19.539 11.177 4.961.081 9.932.379 14.884.171 4.817-.198 3.356 3.13 3.518 5.566.18 2.625.46 4.971-3.671 4.934-26.052-.225-52.085-.216-78.11-.288zm36.678-106.213c4.51 0 9.021-.009 13.531-.009 3.581.054 7.162.036 10.743.198 2.292.1 3.473-.514 3.374-3.103-.577-16.229 3.166-12.864-12.755-13.143-.334-.01-.668.117-1.001.18l-7.587-.027c-2.733.009-5.457.018-8.19.018-2.183-.018-4.366-.027-6.549-.045-2.553-.09-5.124-.063-7.659-.289-3.319-.298-4.095 1.795-3.283 4.114 1.407 4.005-3.915 9.787 3.211 12.196.144.054.334-.027.505-.045l13.486-.027c.722-.009 1.443-.018 2.174-.018zm10.311 78.726c4.293-1.75 8.055-4.339 12.439-7.289-3.951-2.228-7.181-4.05-10.401-5.873-3.238-1.524-5.755-5.99-9.841-4.014-5.638 2.724-10.825 6.387-16.914 10.076 4.772 2.896 9.084 5.007 12.782 7.903 4.493 3.518 8.2 3.166 11.935-.803zm5.168-28.606c2.273-1.272 4.556-2.544 7.514-4.203-2.958-1.642-5.268-2.923-7.568-4.204a2397.987 2397.987 0 01-8.66-5.512c-1.344-.866-2.688-1.534-4.284-.568-5.53 3.356-11.078 6.693-17.04 10.293 3.139 1.885 6.152 3.049 8.308 5.106 7.451 7.09 14.415 5.475 21.397-.515.135-.108.225-.261.333-.397zm26.755-57.95c0-1.877.009-3.753 0-5.629-.009-1.227-.054-2.535-1.714-2.58-2.895-.073-5.809-.235-8.686.027-2.607.243-1.913 2.634-1.678 4.059.649 3.987-2.364 9.048 1.587 11.736 2.201 1.498 6.558.984 9.427-.045 2.408-.866.631-4.294 1.064-6.54.063-.343.009-.695 0-1.028zm-64.1.135c0-1.876.018-3.753-.009-5.638-.018-1.191.072-2.634-1.597-2.688-3.067-.1-6.242-.497-9.165.162-2.625.586-1.551 3.527-1.353 5.277.397 3.527-2.192 8.209 1.399 10.311 2.543 1.498 6.9 1.344 9.895-.162 1.94-.974.55-4.096.821-6.243.054-.324.009-.676.009-1.019zm42.55 103.66c-5.52-3.347-9.787-5.9-14.018-8.507-1.371-.839-2.625-1.497-4.24-.487-4.555 2.842-9.155 5.62-14.685 9.003 11.348-.009 21.415-.009 32.943-.009zm-1.344-74.261h-31.067c15.606 10.338 15.606 10.338 29.696 1.453.262-.163.433-.451 1.371-1.453z" fill="#F07045"/><path d="M358.054 431.302c-23.769 0-47.538-.009-71.308-.009-1.858-1.651-1.768-4.24-2.986-6.206.172-7.434.325-14.867-.532-22.282.848-.099 1.696-.208 2.544-.307 1.912.505 3.843.938 5.728 1.534 4.411 1.398 6.287-.163 5.719-4.736l60.691-.027c.054 10.68.099 21.352.144 32.033z" fill="#B6E4F8"/><path d="M533.955 85.7c-20.458 0-40.908.026-61.367-.046-1.56-.009-4.275 1.002-4.456-1.028-.207-2.373 2.661-3.094 4.583-2.923 5.168.451 9.101-.722 12.222-5.376 1.678-2.5 5.142-2.617 8.038-1.083 4.447 2.355 7.424.442 10.04-3.094 5.457-7.361 6.188-7.569 14.279-3.753 2.328 1.1 4.24 1.01 6.044-.911 2.589-2.751 5.295-5.395 7.839-8.191 5.241-5.755 10.78-5.043 14.28 1.985 1.217 2.453 2.011 5.123 3.328 7.514 2.733 4.989 6.54 5.737 11.032 2.4 6.297-4.691 10.302-4.05 15.011 2.426 2.174 2.986 4.429 5.575 8.353 2.337.369-.307.947-.38 1.443-.487.947-.199 14.974 6.955 15.38 7.82.559 1.191.189 2.085-1.073 2.274-1.344.199-2.743.144-4.114.144-20.287 0-40.574-.009-60.862-.009z" fill="#D1EBEC"/><path d="M265.25 431.347c-6.792-.361-12.719.794-14.821 8.534-.487 1.804-1.858 1.696-3.238 1.678-6.648-.072-13.296-.136-19.944-.199-.758-7.352-3.555-14.244-4.89-21.461-1.272-6.874-4.257-13.369-4.627-20.441.694-.135 1.38-.271 2.066-.397l2.11-.027c1.741-.018 3.482-.045 5.232-.063 10.293.018 20.585.045 30.887.063 1.019 0 2.038-.009 3.058-.009l1.037.243c-.658 1.769-1.308 3.528-1.966 5.296-4.628 7.983-4.484 9.075 2.119 14.984.875.775 1.904 1.38 2.86 2.065.18 1.299-.081 2.734 1.155 3.708-.009.965-.018 1.93-.036 2.896-1.57.649.189 2.354-1.002 3.13z" fill="#01599A"/><path d="M101.103 428.984c2.733-.478 4.402-2.481 6.215-4.303 4.934-4.989 7.812-5.638 14.27-2.905 3.942 1.669 7.767 3.617 11.646 5.44-.162 4.916-2.156 9.427-3.058 14.181-24.545.063-49.099.054-73.644.252-3.807.027-3.509-1.768-2.426-4.023 4.302-8.931 11.997-12.206 21.387-12.53.966.018 1.94.027 2.905.045 7.514 1.551 14.56 5.963 22.705 3.843z" fill="#085E9D"/><path d="M217.739 399.458c.37 7.082 3.346 13.568 4.627 20.442 1.335 7.217 4.132 14.109 4.89 21.461-.758 0-1.525.009-2.283.009-1.344-5.277-2.733-10.537-4.005-15.832-.37-1.561-.604-3.356-2.517-3.329-7.983.118-16.002-1.055-23.958.74-2.752.622-2.589 2.066-2.03 4.123 1.281 4.754 2.472 9.544 3.699 14.316-1.02.009-2.03.027-3.049.036-.686-6.224-2.788-12.124-4.267-18.159l-6.36-23.969c-.911-4.438-1.668-8.931-3.716-13.044-.343-1.561.298-3.41-1.362-4.574-.018-3.753-.487-7.37-2.905-10.455.812-.938.469-1.859-.036-2.779-.162-2.011-.46-3.987-1.948-5.539.46-3.265-.497-6.197-2.138-8.966-.027-.713-.063-1.426-.09-2.138 0-.893-.289-1.66-1.038-2.193.117-4.393-1.587-8.326-3.085-12.313-.009-1.011-.018-2.021-.018-3.04-1.019-3.347-2.048-6.694-3.067-10.032.208-2.029-.505-3.77-1.696-5.358.172-1.028 1.137-1.064 1.822-1.434 3.239 3.933 2.463 9.273 4.781 13.531.316 1.443-.433 3.609 2.31 3.41 1.028.036 2.056.063 3.094.099 4.537 1.146 9.074 1.209 13.612-.045.83-.126 1.659-.261 2.489-.388.857 1.101 1.75 1.48 2.734.145 5.34 1.01 5.773.595 4.474-4.511-.46-1.795-1.11-3.536-1.669-5.304.036-1.741-.604-3.212-1.804-4.457-.108-1.416.406-2.417 1.957-2.309 1.552.108 1.579 1.489 1.904 2.634 1.443 5.052 2.011 10.356 4.411 15.128-.271 1.2-.478 2.391.379 3.464.893 3.302 1.777 6.604 2.67 9.914-.081.298-.1.605-.045.912 1.253 4.51 2.507 9.03 3.761 13.54.027 1.849.253 3.645 1.29 5.25-.009 1.101-.117 2.219.758 3.103 1.2 4.782 2.39 9.554 3.59 14.335-.153.839-.081 1.606.704 2.138.189 3.563 1.371 6.901 2.363 10.284.244.379.505.767.767 1.154zm-26.809-11.086c-8.85-.758-8.859-.758-6.369 7.433.289.947.659 1.876.992 2.814a.802.802 0 00.235.722c-.199 2.039.415 3.23 2.778 3.203 7.884-.073 15.759-.055 23.643-.018 2.553.009 2.977-1.119 1.94-3.203-.884-3.419-1.777-6.847-2.661-10.266-1.047-1.831-2.598-.857-3.988-.721l-14.396.054c-.731-.009-1.453-.009-2.174-.018zm-3.031-36.544c3.915.009 7.83.054 11.754.009 1.398-.018 3.112.009 1.623-2.219-.568-11.168-1.741-12.567-10.22-12.161-.974-.009-1.94-.027-2.914-.036-2.823.063-5.647.117-8.47.181-3.347-.271-6.702-.668-10.365.171 1.083 4.041 2.129 7.947 3.166 11.854.578 2.156 2.265 2.255 4.051 2.237 2.733-.027 5.466-.027 8.199-.036h3.176zm-11.502 11.483c.055.659.009 1.344.172 1.967.361 1.38.379 3.166 2.408 3.238 2.228.073 1.678-2.074 2.337-3.238.297-.532.216-1.281.315-1.94.506-2.327.948-4.672 1.552-6.973.307-1.182.325-2.174-1.083-2.219-2.354-.072-5.06-1.001-6.981.577-1.651 1.354-.388 3.501.153 5.278.334 1.118.054 2.444 1.127 3.31zm9.391 8.273c-7.478-.704-5.025 4.934-5.124 8.488-.108 3.735 1.128 6.901 6.071 5.431 1.777.009 3.545.027 5.322.036 4.808.018 9.616.027 14.433.045l.451.154.451-.154 2.183-.027c.587.208.848.009.758-.613-1.741-13.811-1.741-13.811-15.2-13.559-1.028.018-2.047.163-3.067.253l-6.278-.054zm-1.037-8.219c-2.156 4.358-.361 5.53 3.942 5.269 4.086-.253 8.244-.379 12.304.054 4.925.523 6.043-1.236 4.266-5.548-.812-2.932-.658-7.172-3.211-8.299-4.51-1.994-10.004-1.723-14.55-.181-2.905.984-2.688 5.458-2.751 8.705zm26.331 42.895c-7.163-1.984-14.469-.487-21.695-.848-1.633-.081-1.723.993-1.696 2.382.208 9.183 2.959 11.916 12.169 11.926 2.896.063 5.791.207 8.678.171 11.862-.135 11.483 1.994 8.344-10.789-.929-3.798-2.652-4.366-5.8-2.842z" fill="#02B59E"/><path d="M412.304 425.005c-.018 5.512-.036 11.024-.063 16.536-1.317 5.133-.92 9.797 2.065 14.542 2.878 4.573 4.348 9.923 5.819 15.173.784 2.815 1.353 5.503-.542 8.083-.297-.199-.613-.226-.929-.072-.866-.217-1.741-.433-2.607-.65-1.687-1.245-2.652-2.959-3.509-4.844-4.609-10.077-10.229-19.693-13.08-30.861-2.119 1.236-3.211 2.454-3.166 4.321.208 8.029-2.742 15.471-4.176 23.193-.587 3.166-1.489 6.134-4.204 8.191-.866-.09-1.741-.18-2.607-.279.027-1.723-1.966-2.571-1.624-4.628 2.075-12.377 1.904-25.124 6.008-37.176 1.723-4.24 3.446-8.488 5.16-12.728 5.827.415 11.637.803 17.455 1.199z" fill="#F07045"/><path d="M78.389 425.141a312.67 312.67 0 01-2.905-.045c-.027-16.473-.063-32.954-.09-49.426.01-8.074.054-16.148.027-24.222-.018-6.531-5.124-10.581-11.483-9.363-3.68.703-7.415 1.1-11.14 1.506-1.12.117-2.716.298-2.842-1.38-.126-1.732 1.443-1.525 2.598-1.66 3.536-.406 7.072-.821 11.546-1.335-3.978-3.203-7.342-5.936-10.743-8.624-.965-.758-2.255-1.48-1.092-2.797 1.065-1.199 2.174-.261 3.121.524.262.216.487.487.75.703 1.154.92 2.119 2.779 3.85 1.831 1.796-.983.705-2.679.326-4.122a461.83 461.83 0 01-2.138-8.435c-.28-1.154-.73-2.688.721-3.121 2.147-.65 1.804 1.281 2.12 2.544.983 3.96 2.59 7.857 2.968 11.871.541 5.783 4.501 8.543 8.516 11.448 2.002 1.452 2.985 1.028 2.95-1.66-.091-7.559-.037-15.119-.028-22.678 0-1.2-.045-2.418.126-3.6.145-1.028.614-2.093 1.94-1.858 1.11.189.983 1.272.983 2.075.036 4.808.144 9.625 0 14.433-.117 3.825 1.687 3.744 3.933 1.958 3.924-3.112 9.057-5.458 8.533-11.854-.09-1.127.515-2.075 1.868-1.786 1.055.235 1.11 1.173.92 2.057-.217.965-.992 1.858-.18 3.256 1.849-.171 2.877-1.858 4.311-2.796 1.218-.803 2.553-2.77 3.825-.974 1.434 2.029-.902 2.751-2.255 3.716-3.04 2.165-6.008 4.421-9.382 6.91 3.573 2.147 8.002-.622 10.888 3.14-2.011 1.488-4.122.929-6.016.866-15.642-.542-17.05.667-16.418 16.625.072 1.714.036 3.437.01 5.151-.046 2.634.91 3.095 3.508 2.373 5.494-1.534 8.11-5.061 9.057-10.492.252-1.452.135-4.709 2.832-3.843 2.319.74.045 2.914-.036 4.457-.063 1.272-1.605 2.58-.225 3.798 1.29 1.136 2.634-.072 3.833-.506 3.518-1.271 6.982-2.715 10.428-4.158.785-.334 1.579-1.056 2.201-.063.659 1.046.063 2.075-.857 2.616-1.019.595-2.192.938-3.328 1.335-3.464 1.218-6.252 2.571-1.651 6.035.821.622 1.479 1.813.631 2.688-1.308 1.353-2.273-.153-2.868-.956-3.302-4.502-7.253-3.572-11.42-1.633-2.643 1.227-5.25 2.58-7.992 3.527-3.04 1.056-4.493 2.806-4.159 6.108.262 2.552.207 5.142.289 7.712a50211.62 50211.62 0 01-.361 52.124zm96.087-56.706c.505.92.848 1.84.036 2.779l-13.45.351c-1.046 0-2.101.009-3.148.009-2.67.488-6.467-2.291-7.748 2.066-1.083 3.663-2.571 7.316-2.49 11.258-.018.74.379.857.992.659 2.03-.018 4.069-.027 6.098-.045 1.092.009 2.174.009 3.266.018 5.475.018 10.942.027 16.417.045 1.443.334 2.03-.298 1.921-1.705.352-.74.695-1.479 1.047-2.21 1.66 1.164 1.01 3.013 1.362 4.574-1.227 4.681-3.067 9.201-3.365 14.099-2.165 5.287-3.5 10.771-4.068 16.455-3.293 7.938-4.682 16.418-7.135 24.591-.731 0-1.453.009-2.183.009 0-.605-.009-1.218-.009-1.822 1.208-4.43 2.264-8.913 3.662-13.279 1.064-3.32-.027-4.412-3.292-4.285-3.591.144-7.181.099-10.771.135-2.562-.009-5.178.289-7.686-.099-4.835-.74-7.387.992-7.586 5.954l-2.138 9.499c-.045.325-.072.658-.09.983-.758.505-.884 1.263-.83 2.084a5.04 5.04 0 00-.135.821h-2.977c.902-4.754 2.896-9.265 3.058-14.181 3.563-9.761 5.34-19.991 8.037-29.977 2.679-10.383 5.368-20.766 8.047-31.14.297-1.146.784-2.328-.505-3.23 3.247-3.843 3.328-8.642 4.059-13.252 3.843-9.977 5.322-20.603 8.515-30.761 1.2 1.588 1.904 3.329 1.696 5.358-1.218 1.66-1.497 3.609-2.039 5.548-1.533 5.476 1.11 5.611 5.106 4.493.009 1.01.018 2.02.018 3.04l-.099.243.18.199-3.112-.136c-1.56.082-3.635-1.055-4.203 1.516-.767 3.464-2.598 6.748-1.85 10.482-1.813 2.553.37 2.238 1.723 2.256 3.834.045 7.668-.018 11.493-.045.027.712.063 1.425.09 2.137-1.886.009-3.771.037-5.647.037-9.598 0-9.598-.009-11.898 9.174-2.3 4.655-.541 5.827 4.176 5.503 5.791-.379 11.628-.163 17.455-.208zm-21.739 19.891c-1.696 0-3.392-.009-5.088-.009-.632-.171-1.037-.063-.902.713-1.714 2.697-1.985 5.819-2.625 8.832-1.705 3.464-.812 4.844 3.211 4.718 6.982-.226 13.973-.109 20.964-.046 2.327.019 4.149-.297 3.924-3.238.893-3.419 1.795-6.829 2.688-10.248.153-1.551-.812-.848-1.479-.74l-17.419.163c-1.092-.036-2.183-.09-3.274-.145zm3.896 31.402c2.571.064 5.142.1 7.713.199 2.914.117 4.068-1.326 3.807-4.114.523-1.975.857-4.032 1.614-5.917 1.498-3.753.172-4.736-3.572-4.619-6.991.225-14 .054-21.009.072-1.506 0-3.301-.28-3.617 1.876-.586 3.97-3.058 7.659-2.075 11.791.244 1.019 2.147.613 3.32.631 4.6.054 9.21.063 13.819.081z" fill="#099B7C"/><path d="M169.091 75.505c-2.111 1.354-3.861.885-5.521.885-25.059.036-50.118.027-75.177.018-1.371 0-2.76.045-4.105-.163-.523-.081-1.1-.722-1.362-1.245-.135-.27.388-1.254.578-1.236 3.193.172 5.349-4.176 6.594-3.761 5.935 1.993 8.876-1.985 12.737-4.71 1.308-.92 3.671-.468 5.241 1.03 3.689 3.526 6.061 1.632 7.965-2.013.397-.757.758-1.542 1.145-2.309 3.356-6.694 7.587-7.208 11.745-1.137 2.625 3.834 5.376 5.368 9.896 3.05 3.437-1.76 5.566 1.091 7.108 3.41 1.741 2.606 3.491 3.536 6.396 2.237.739-.334 1.813-.55 2.507-.262 4.655 1.93 9.237 4.005 14.253 6.206z" fill="#D1EBEC"/><path d="M394.858 423.824c-1.723 4.24-3.446 8.489-5.169 12.729-2.841-4.006-6.783-5.368-11.591-5.251-6.685.163-13.369.009-20.053-.009l-.135-32.024c.387-.081.784-.153 1.172-.235h1.056c1.371 0 2.733 0 4.104-.009h1.055c1.417.009 2.824.027 4.24.036.135 3.239.406 6.487.343 9.725-.036 2.012.406 3.365 2.571 3.681 1.082 2.129 2.733 3.924 5.178 3.085 5.899-2.021 11.781-.063 17.653-.424.379 2.941-1.534 5.737-.424 8.696z" fill="#01599A"/><path d="M266.251 428.217c.009-.965.019-1.93.037-2.896 5.827-.081 11.654-.153 17.49-.234 1.218 1.957 1.128 4.556 2.986 6.206 6.522 12.558 2.319 24.97-.469 37.41-.334 1.498-.37 3.058-.541 4.592-.659.622-.839 1.254-.036 1.894l-.415.091s-.045.424-.036.424c-5.44 2.589-6.684 1.84-6.757-3.744-.09-7.064 1.083-13.956 2.698-20.775.784-3.311.559-6.072-2.373-8.182-5.548-3.789-8.398-9.851-12.584-14.786z" fill="#6EC8EF"/><path d="M196.153 441.387c-1.227-4.772-2.409-9.553-3.699-14.316-.55-2.057-.713-3.5 2.03-4.123 7.956-1.786 15.975-.622 23.958-.739 1.913-.028 2.147 1.768 2.517 3.328 1.272 5.296 2.661 10.555 4.005 15.832-9.598.009-19.205.009-28.811.018zm-31.96.01c2.453-8.173 3.842-16.662 7.135-24.591 1.732.676 3.491 1.29 5.187 2.029 4.005 1.759 7.613 4.628 12.322 4.43 1.479 6.044 3.572 11.934 4.267 18.159l-28.911-.027zm-12.584-19.242c3.59-.036 7.18.009 10.771-.135 3.256-.136 4.356.965 3.292 4.285-1.407 4.366-2.463 8.849-3.662 13.279-1.687.604-3.374 1.199-5.061 1.804H135.21c-.641-.262-1.281-.532-1.931-.794-.054-.83.072-1.579.83-2.084.767-.262.83-.586.09-.983l2.138-9.499c6.143.776 11.023-1.723 15.272-5.873zm1.768 4.754c-.289-.126-.568-.243-.857-.37-.126.289-.406.632-.325.839.081.208.523.262.812.388.126-.289.253-.568.37-.857z" fill="#01599A"/><path d="M266.252 428.217c4.185 4.934 7.036 10.996 12.574 14.776-2.986 11.087-8.497 21.091-13.332 31.393-1.038 2.21-2.264 3.717-4.772 3.798-.208.081-.415.045-.568-.135l-3.004-.406c.46-6.766 2.48-13.216 5.701-18.998 3.256-5.846 4.33-11.683 3.373-18.133-.451-3.04-.658-6.116-.974-9.174 1.191-.767-.568-2.472 1.002-3.121z" fill="#49B3D7"/><path d="M578.562 316.294c-2.634.018-5.268.027-7.902.045-.631-9.165-.884-18.412-4.952-26.946-.397-3.915-.803-7.83-1.209-11.745 3.987-.117 7.974-.235 11.961-.361.704 13.008 1.399 26.008 2.102 39.007z" fill="#02B59E"/><path d="M564.508 277.648c.397 3.915.803 7.83 1.2 11.745-3.645 8.678-3.275 17.807-2.977 26.919-2.381.018-4.763.027-7.144.045-.442-8.092-.893-16.175-1.335-24.267l.595-10.356c.027-.352.045-.712.072-1.064.162-1.299.325-2.589.487-3.879l.262.054.243-.117c2.86.315 5.728.613 8.597.92z" fill="#099B7C"/><path d="M211.903 99.97c-2.463-2.67-2.409-6.296-3.654-9.643-5.304 1.678-4.05 9.625-10.59 10.645.74-3.167.523-6.044-.235-8.976-.847-3.239-.694-6.63 2.247-8.93 3.103-2.428 6.828-2.572 10.184-.921 2.12 1.037 3.888 1.398 6.197 1.1 2.923-.37 5.872.415 8.064 2.553 2.012 1.958 3.266 4.195-.009 6.28-3.337 1.993-10.085-1.228-9.787 6.458.054.983-1.317 1.416-2.417 1.434z" fill="#F07045"/><path d="M555.902 276.736l-.234.118-.262-.054c-.315-1.218-.045-2.932-1.804-3.122-2.895-.297-2.67-2.372-2.76-4.339 4.988-3.771.902-4.754-1.885-6.125-.587-3.302-1.047-6.63-1.795-9.896-.74-3.239.054-4.826 3.662-4.601 2.517.163 5.06-.063 7.586-.108 5.891-.451 4.763 3.978 5.124 7.37-.235 1.624-1.173 2.237-2.778 2.084-1.254-.117-2.436.036-2.301 1.75.109 1.335.911 2.156 2.228 2.282 1.155.109 2.328.055 3.491.073.136 2.228.036 4.501.451 6.675.785 4.096.1 6.297-4.79 5.061-2.02-.514-4.375-.532-3.933 2.832z" fill="#B6E4F8"/><path d="M260.686 478.202c2.544-.09 3.77-1.606 4.799-3.816 4.835-10.302 10.346-20.315 13.332-31.393 2.932 2.111 3.157 4.872 2.373 8.182-1.615 6.82-2.788 13.712-2.698 20.775.073 5.584 1.308 6.342 6.757 3.744 2.138-.18 3.951.063 3.707 2.914-3.328.821-7-1.101-10.139 1.281-2.616.072-5.223.144-7.839.207-3.058-2.625-7.018-.378-10.292-1.894z" fill="#FBFCFC"/><path d="M270.987 480.115c2.616-.072 5.223-.136 7.839-.208-.622 2.409.244 3.735 2.788 3.311 3.4-.568 7.243 1.57 10.166-1.597.198-.216-.442-1.209-.686-1.831 5.629.83 11.258 1.669 17.563 2.607-10.833 5.719-50.777 6.378-68.926.749 5.457-2.562 10.879-2.192 16.21-2.436l2.273-.785c.009.839-.307 1.904.09 2.481.83 1.2 11.736 1.362 12.728.172.388-.497-.009-1.633-.045-2.463zm148.605-.767c4.835 2.878 10.762 1.416 16.21 4.114-23.516 4.889-46.528 4.447-70.333.144 3.861-2.598 8.245-1.137 11.212-3.789.082 1.191-.92 2.968 1.399 3.004 3.391.054 6.792.027 10.184-.108 1.759-.072 1.326-1.624 1.47-2.724 5.782-.235 11.565-.542 17.338.162.054 1.001-1.128 2.607.92 2.697 3.518.163 7.126.496 10.545-.081 2.643-.442 1.47-2.255.099-3.5.343-.144.659-.117.956.081z" fill="#D7D6DF"/><path d="M220.761 112.582c.288 5.034.685 10.058.18 15.101-3.193-.586-6.368-1.425-9.58-1.669-2.679-.198-2.688-1.218-1.849-3.211a315.678 315.678 0 004.177-10.465c.577-1.515 1.894-3.355-.298-4.501-2.228-1.155-3.374.74-4.51 2.246-1.823 2.418-1.696 5.963-4.52 7.803-2.706-2.517.893-4.844.226-7.298 1.642-3.058 2.986-6.396 6.828-7.424 1.696.487 3.392.974 5.088 1.47 2.03 2.31 3.121 5.142 4.258 7.948z" fill="#085E9D"/><path d="M555.902 276.737c-.451-3.365 1.904-3.347 3.933-2.841 4.89 1.226 5.575-.966 4.79-5.061-.415-2.174-.315-4.448-.451-6.676 4.52.208 8.462 2.147 12.422 4.078-.037 3.68-.082 7.37-.118 11.05-3.987.118-7.974.235-11.961.361-2.877-.306-5.746-.604-8.615-.911z" fill="#F07045"/><path d="M555.018 234.175c-3.157-3.653-2.201-6.955 2.725-9.327 2.201-1.065 4.627-1.417 6.179-3.933 1.118-1.814 3.68-1.66 5.692-.812 1.533.649 2.895 2.408 2.246 3.662-2.012 3.879-.316 7.93-1.146 11.782-.207.965-.848 1.84-1.29 2.76-2.832 0-1.01-1.741-1.073-2.815-.063-1.019.848-2.886-1.146-2.625-2.886.379-5.151-1.353-7.739-1.885-3.437-.695-4.339.198-4.448 3.193z" fill="#0C0A0A"/><path d="M576.587 266.245c-3.951-1.93-7.902-3.87-12.422-4.077-1.163-.018-2.336.036-3.491-.073-1.326-.126-2.119-.947-2.228-2.282-.135-1.714 1.056-1.867 2.301-1.75 1.605.153 2.543-.46 2.778-2.084 2.165 3.284 5.656 4.168 9.147 4.971 2.363.541 3.166-.325 2.309-2.752-1.651-4.682-2.67-9.499-2.463-14.514 3.103.27 4.853 2.002 5.765 4.934 1.38 4.411 2.543 8.814 2.751 13.486.18 3.492-1.128 4.727-4.447 4.141z" fill="#EFA59B"/><path d="M572.536 243.684c-.207 5.016.812 9.824 2.463 14.515.857 2.426.045 3.292-2.309 2.751-3.491-.803-6.982-1.678-9.147-4.97-.361-3.392.767-7.822-5.124-7.371.866-1.723 2.066-3.157 3.744-4.14 2.868-.352 5.728-.713 8.596-1.065.578.091 1.173.181 1.777.28z" fill="#F07045"/><path d="M570.741 243.404c-2.859.352-5.728.713-8.596 1.064-3.392-2.733-6.919-5.367-7.136-10.293.109-2.994 1.011-3.888 4.439-3.184 2.588.532 4.853 2.264 7.739 1.885 1.994-.261 1.083 1.606 1.146 2.626.063 1.064-1.75 2.805 1.073 2.814.451 1.687.893 3.383 1.335 5.088z" fill="#EFA59B"/><path d="M591.173 431.004c-6.973-2.868-12.945-7.406-19.539-11.177 1.651-1.696 3.266-2.571 5.088-3.121 8.344.74 11.835 4.186 14.451 14.298z" fill="#085E9D"/><path d="M216.494 104.617c-1.696-.488-3.392-.984-5.088-1.471.163-1.064.334-2.12.497-3.184 1.1-.018 2.462-.451 2.426-1.435-.289-7.677 6.45-4.465 9.787-6.459-1.073 5.08-2.625 9.869-7.622 12.549z" fill="#EFA59B"/><path d="M389.743 479.988c-.144 1.1.289 2.652-1.47 2.724-3.392.135-6.793.153-10.184.108-2.319-.036-1.317-1.813-1.399-3.004 2.535-2.471 5.674-1.38 8.624-1.461.875.09 1.741.18 2.607.28.604.451 1.209.902 1.822 1.353z" fill="#333A74"/><path d="M580.799 373.631c-2.977-1.533-7.739-2.481-7.794-5.602-.036-2.336 4.754-3.789 7.695-5.16.036 3.59.072 7.181.099 10.762z" fill="#D1EBEC"/><path d="M291.085 479.781c.253.631.884 1.615.686 1.831-2.923 3.167-6.766 1.029-10.166 1.597-2.544.424-3.41-.902-2.788-3.311 3.13-2.381 6.811-.46 10.139-1.281.713.388 1.426.776 2.129 1.164z" fill="#333A74"/><path d="M577.669 397.51c-2.057-.722-4.014-1.624-5.954-3.879 2.797-1.579 5.44-3.086 8.092-4.583-.722 2.823-1.434 5.647-2.138 8.462z" fill="#D7D6DF"/><path d="M548.947 263.214c2.788 1.38 6.874 2.354 1.886 6.125-3.626-1.109-3.536-3.374-1.886-6.125zM303.443 85.627c1.444.478 3.311-.659 4.754 1.488-2.679 1.173-5.349.316-7.83.75-.929-.244-2.462.144-2.625-.93-.216-1.443 1.299-1.073 2.192-1.155 1.164-.099 2.337-.099 3.509-.153z" fill="#EFA59B"/><path d="M311.454 67.324c-2.4-.424-3.545-2.174-5.386-5.079 3.094 1.507 4.457 3.076 5.62 4.871l-.234.208z" fill="#FCBE55"/><path d="M258.205 479.916l-2.273.784c.018-1.163-.072-2.381 1.2-3.049 1.001.136 2.002.271 2.985.388-.64.605-1.271 1.245-1.912 1.877z" fill="#FBFCFC"/><path d="M156.949 441.378c1.687-.604 3.374-1.199 5.061-1.804 0 .605.009 1.218.009 1.822-1.696 0-3.383-.009-5.07-.018z" fill="#085E9D"/><path d="M312.707 68.144c.921.46 1.805.957 1.723 2.193-.009.117-.288.352-.36.324-1.029-.424-1.669-1.127-1.525-2.327 0-.009.162-.19.162-.19zm38.176-1.028c-.632 1.344-1.417 2.472-3.185 2.048l.082.063c.36-.667.73-1.344 1.091-2.012.677-.027 1.344-.063 2.012-.099z" fill="#FCBE55"/><path d="M133.279 440.585c.641.262 1.281.532 1.93.794l-2.065.027c.027-.28.072-.55.135-.821z" fill="#085E9D"/><path d="M351.893 65.095c.334-.902.92-1.39 1.93-1.155l.154.136c-.397 1.028-1.029 1.524-2.138.974l.054.045z" fill="#FCBE55"/><path d="M351.812 67.126c-.334.027-.668.045-.993.045-.342-1.056.199-1.651 1.083-2.075 0 0-.054-.045-.063-.045l-.027 2.075zm-40.124-.01c.343.343.677.686 1.019 1.038l-.162.18c-.685.01-1.028-.352-1.082-1.01-.009 0 .225-.208.225-.208z" fill="#FCBE55"/><path d="M554.91 280.679c-.027.352-.045.712-.072 1.064-.099-.252-.226-.505-.271-.767-.009-.072.226-.189.343-.297z" fill="#D1EBEC"/><path d="M353.832 63.94l.406-.649c.713.523.036.595-.261.785l-.145-.135z" fill="#FCBE55"/><path d="M285.709 475.189c-.803-.649-.623-1.272.036-1.894-.018.622-.027 1.263-.036 1.894zm114.453-301.571a971.619 971.619 0 002.264 4.042c-1.984.225-4.176-1.056-5.944.369-6.73 5.413-14.957 7.686-22.678 11.042-14.018-.072-28.036-.153-42.045-.198-6.964-.027-7.289.324-6.567 7.18.126 1.182.74 2.337.704 3.491-.118 3.374 1.786 3.852 4.573 3.771 3.924-.108 7.857.099 11.79.181-3.735 1.84-7.478 3.68-11.213 5.511-1.524 2.039-.388 4.421-.857 6.604-4.853-.713-6.621 1.164-6.215 6.206 1.254 15.48 2.192 30.987 3.112 46.485.154 2.562 1.308 3.031 3.545 3.167 3.482.198 6.784-.866 10.185-1.029 15.362-.748 30.778-.893 46.068-2.372 7.649-.74 15.326-.514 22.993-1.444 5.259-.64 12.566-3.671 15.443 5.115.379 1.164 2.806 2.048 4.411 2.337 3.789.676 6.333 3.04 8.823 5.611-10.654.009-21.298.018-31.951.018h-75.755c-2.76 0-5.845-.46-5.71 3.843.487 15.768-.659 31.537.604 47.333.424 5.304 2.517 5.548 6.594 5.539 33.665-.063 67.339.027 101.004.072.884 4.231 2.444 8.353 1.993 12.792-1.019.081-2.047.234-3.067.234-71.298.009-142.588.009-213.887 0-1.19 0-2.39-.171-3.581-.261-1.146-4.249-3.193-8.273-3.175-12.801 1.028-.027 2.057-.081 3.094-.081 31.608-.009 63.216-.1 94.824.099 5.016.027 6.576-1.543 6.396-6.477a376.226 376.226 0 01.009-27.821c.18-4.709-1.182-6.08-5.99-6.062-38.996.189-77.992.09-116.988.081l1.407-7.036c2.229-.063 4.466-.172 6.694-.172 36.271-.009 72.543 0 108.824-.036 1.822 0 4.573.921 5.286-.848 1.479-3.68 1.173-7.866.244-11.619-.758-3.031-4.069-1.858-6.306-1.858-36.957-.081-73.923-.09-110.881-.117l-.054-5.882c2.057-.081 4.114-.234 6.17-.234 35.577-.009 71.146-.028 106.723.036 3.139.009 5.051-.199 5.024-4.276-.171-23.716-.126-47.433-.036-71.149.009-3.049-.83-4.204-4.068-4.204-43.137.091-86.273.091-129.4-.009-3.23-.009-4.114 1.074-4.06 4.159.145 9.625.036 19.251.027 28.867-8.1 1.119-11.248 4.448-11.338 12.233-.019 1.75-.424 3.175-1.263 4.745-3.563 6.72-2.12 13.531 3.22 16.337-2.517 3.166-2.544 7.74-5.899 10.437-.019-30.617-.046-61.225-.064-91.843 17.139-.036 34.288-.063 51.427-.099 1.398 1.065 2.796 1.092 4.194-.009.65 0 1.299 0 1.94.009l.162 1.868c-1.182 1.416-.649 2.318.758 3.229 3.013 1.949 5.944 4.032 9.029 6.143 2.77-3.563.316-5.214-2.065-7.117-1.272-1.011-4.159-.442-3.59-3.401 1.326-.352 2.652-.695 3.978-1.047 2.85.379 5.692.415 8.533-.045.785.875 1.705 1.399 2.932 1.191-1.047 2.851-.551 4.727 2.913 5.097 2.012.216 3.96.938 5.972 1.164 1.101.126 2.688 1.795 3.356-.379.577-1.886-.487-3.076-2.264-3.96-1.949-.966-4.457-.018-6.053-1.94.342-.397.685-.794 1.019-1.191 2.914.099 5.827.289 8.741.289 48.648.036 97.305.063 145.962.09z" fill="#FBFCFC"/><path d="M214.789 349.239c1.191.09 2.391.261 3.581.261 71.299.009 142.589.018 213.887 0 1.02 0 2.048-.153 3.067-.234.731.162 1.453.333 2.183.496-2.922 3.671.929 5.665 2.066 8.335-.947.92-2.282 1.768-1.588 3.338.605 1.389 2.048.812 3.139.866 2.174.108 4.366.027 6.549.09 3.546.09 4.285-1.272 2.22-4.158 2.264-2.68.442-6.017 1.416-8.904 2.21.108 4.42.207 6.63.316 2.075 2.435.893 5.737 2.201 8.38-2.03.208-4.168-.523-6.089.487-1.037.55-2.138 1.407-1.822 2.788.307 1.353 1.633.965 2.58.983 2.58.063 5.151-.009 7.73.063 2.256.063 3.221-.821 2.598-3.103.199-3.338.388-6.676.587-10.013 4.402.306 8.795.631 13.179-.181 1.19.081 2.39.253 3.581.244 9.354-.072 7.911.83 7.911-7.948.045-53.756.027-107.512.009-161.268 0-2.228-.189-4.447-.298-6.675.045-1.714 0-3.428.154-5.133.27-2.959-.65-4.276-3.951-4.258-27.919.153-55.829.144-83.747.18v-15.759c30.579.045 61.168.081 91.748.126 8.245.009 9.95 1.705 9.95 9.932.009 66.331.009 132.654-.018 198.985 0 1.822.577 3.834-1.119 5.331-3.59.081-7.189.226-10.78.226-60.618.009-121.236-.018-181.855.009-30.561.009-61.123.117-91.694.18-1.046.009-2.084.027-3.13.036l-7.433-.108c-1.254-4.511-2.508-9.03-3.761-13.541a813.04 813.04 0 011.912-.297c1.696-.036 3.392-.063 5.078-.099 1.128.036 2.229.027 3.329.027z" fill="#085E9D"/><path d="M478.903 349.076c-4.384.812-8.786.487-13.179.18.189-14.83-1.092-29.615-1.669-44.419.153-7.92.298-15.832.451-23.752 2.706-1.57 3.707-4.465 5.331-6.874 4.032-4.871 5.602-10.194 3.834-16.536-1.173-4.221-1.615-8.569-.118-12.999.993-2.95-.766-4.402-3.779-4.312-.496-10.365-.947-20.73-1.534-31.095-.153-2.797.226-5.783-1.813-8.2-1.064-.596-2.12-1.191-3.184-1.786.018-2.048-.045-4.105.063-6.144.162-3.022-1.109-4.375-4.212-4.303-8.02.19-16.039.244-24.058.352-9.977-2.652-19.539-6.54-29.209-10.094.631-2.12-.677-3.789-1.29-5.62 1.714.009 3.428.027 5.142.036l68.908.27c.054 21.651.117 43.31.153 64.96.063 36.779.109 73.557.163 110.336z" fill="#FBFCFC"/><path d="M240.435 148.72c51.164-.036 102.329-.072 153.494-.117 2.057 0 4.104-.162 6.161-.252l.081 15.94c-15.777-.073-31.563-.199-47.349-.19-36.38.018-72.751.09-109.131.145-.686-5.26-3.04-10.167-3.256-15.526z" fill="#01599A"/><path d="M243.7 164.245c36.38-.054 72.751-.135 109.131-.144 15.786-.009 31.563.126 47.349.189.334 3.113-.875 6.216-.009 9.328-48.657-.027-97.314-.054-145.962-.099-2.914 0-5.827-.19-8.741-.289-.595-2.995-1.182-5.99-1.768-8.985zm234.896 9.535l-68.908-.271a979.339 979.339 0 01-5.142-.036c-3.112-2.562-1.741-6.08-1.975-9.255 27.918-.036 55.828-.036 83.747-.181 3.31-.018 4.23 1.299 3.951 4.258-.154 1.696-.109 3.419-.154 5.133l-11.519.352zm7.532-5.431c-.108-1.163-.694-1.957-1.903-1.948-1.398.009-2.273.884-2.273 2.237-.009 1.326.793 2.345 2.228 2.237 1.38-.108 1.957-1.154 1.948-2.526zm-9.814-2.047c-.884.153-1.633.676-1.831 1.831-.235 1.389.378 2.445 1.677 2.688 1.344.253 2.283-.631 2.418-1.976.153-1.38-.749-2.128-2.264-2.543z" fill="#49B3D7"/><path d="M373.795 189.071c7.712-3.356 15.939-5.629 22.678-11.042 1.768-1.425 3.96-.135 5.944-.37.036 3.528-4.041 2.427-5.178 4.619-4.735 1.2-8.921 3.69-13.296 5.729-10.04 4.663-20.071 9.327-30.111 13.991-4.826 1.732-9.607 3.563-13.909 6.423-2.968.153-5.882 1.119-8.895.586 3.735-1.84 7.478-3.68 11.213-5.52 10.518-4.8 21.036-9.608 31.554-14.416zm89.439 10.23c1.064.595 2.12 1.191 3.184 1.786l-8.804.217c-11.898-4.412-23.805-8.823-35.703-13.234-5.476-2.12-10.951-4.24-16.427-6.351.118-.866.235-1.732.343-2.598 9.67 3.554 19.232 7.442 29.209 10.095 9.192 3.924 18.645 7.144 28.198 10.085z" fill="#02B59E"/><path d="M405.475 181.71c5.476 2.12 10.951 4.24 16.427 6.351-10.311 1.813-20.694.406-31.04.748-2.291.073-4.781.866-6.919-.802 4.375-2.039 8.561-4.529 13.296-5.729 2.923 2.391 5.602 1.137 8.236-.568z" fill="#FBFCFC"/><path d="M218.812 363.257c30.562-.063 61.124-.163 91.694-.181 60.619-.027 121.237 0 181.855-.009 3.591 0 7.19-.144 10.78-.225.397.541 1.146 1.082 1.155 1.633.18 9.255.775 18.52-.298 27.766-.622 5.359-3.888 7.118-8.876 7.1-22.344-.054-44.697-.018-67.041-.009-1.371 0-2.752.045-4.123.072a3.853 3.853 0 01-.965-.181c-.252-.487-.55-.568-.902-.09-1.389.018-2.778.027-4.167.045-.641-2.526-1.895-4.646-4.087-6.152v-2.914c7.181-1.975 9.932-4.664 10.221-10.058.252-4.7-2.607-7.046-6.504-8.742-4.709-2.047-10.735.876-10.843 5.377-1.082 5.422-3.094 10.951 1.912 15.624-3.888.866-5.529 5.016-9.147 6.279-.234-.595-.469-1.182-.703-1.777l-.009-.127c.667-2.57.433-5.178.261-7.776.406-1.542 2.49-2.534 1.462-4.709-5.809 0-11.646.19-17.464-.072-3.428-.153-6.287.298-7.983 4.096-.803-1.209-1.263-1.904-1.732-2.607-1.182-1.741-3.194-1.922-4.592-1.191-1.894 1.001.217 2.246.514 3.392.975 3.726.551 7.487.325 11.24-1.416-.009-2.823-.027-4.239-.036-.352-.523-.704-.523-1.056 0-1.371 0-2.733 0-4.104.009-.352-.514-.704-.523-1.056 0-.388.081-.784.153-1.172.234l-60.691.028c-1.163-3.934-3.428-7.578-2.544-12.025.379-1.931-.911-3.483-2.661-4.475.632-3.545 3.563-1.416 5.331-2.156 1.543.614 3.212 1.877 4.006-.902.839-2.923-1.705-9.571-4.33-10.978-2.445-1.308-3.897-.461-4.321 2.246-2.589 2.859-4.492 6.378-8.055 8.29-1.272.686-2.301 1.606-1.741 3.221.604 1.759 2.092 1.244 3.436 1.208.821-.027 1.651.262 2.481.406.974 2.851 2.039 5.674 2.896 8.57.478 1.597 1.109 3.735-.045 4.863-1.426 1.38-3.022-.587-4.565-1.02-2.625-1.966-5.575-3.184-8.777-3.834-.956-.514-1.903-1.037-2.859-1.551 3.103-4.872 2.778-9.734-.064-14.587.984-1.525 2.905-2.941 1.543-4.971-1.425-2.129-2.571.568-3.924.568-.677 0-1.362 0-2.039-.027-5.782-.288-9.958 2.544-10.653 7.235-.722 4.854 2.76 8.678 8.903 9.788.136 1.001.28 2.003.415 3.004-1.497 1.227-3.004 2.454-4.501 3.69-1.019 1.136-2.039 2.273-3.049 3.419-.343-.082-.695-.163-1.037-.244-1.02-.983-2.039-.974-3.058.009-10.293-.018-20.585-.045-30.887-.063-.153-.83-.279-1.678-.478-2.499-2.706-11.069-5.935-21.984-7.848-33.224zm101.816 7.235c-4.402-.091-7.839 3.473-7.984 8.281-.153 5.097 2.679 8.119 7.695 8.2 4.889.081 8.587-3.049 8.786-7.451.216-4.646-3.816-8.931-8.497-9.03z" fill="#FEFEFE"/><path d="M152.863 349.617c-.731 4.61-.812 9.418-4.059 13.252-3.221.568-6.369-.144-9.544-.496-.442-.018-.893-.045-1.335-.063-1.092-1.561-.605-3.338-.605-5.007-.027-66.34-.018-132.689-.009-199.03 0-8.082 1.552-9.634 9.598-9.652 20.45-.054 40.9-.099 61.349-.144 5.349 2.408 10.726.55 16.102.144 2.742-.208 4.33.352 3.094 3.744-1.389 3.824-2.336 7.812-3.482 11.727h-64.876c-8.939 0-8.939 0-7.947 9.147.018.172.09.334.135.496-.081 1.02-.243 2.048-.243 3.067.009 34.623.027 69.245.045 103.868-.569 2.138-.596 4.276.036 6.414.045 4.781.099 9.562.144 14.343-1.227 1.038-2.444 2.075-3.671 3.103-4.041-.793-5.647.857-5.133 4.917.208 1.669.027 3.383.045 5.079.018 1.56-.045 3.265 2.219 3.175 1.813-.081 2.679-1.236 2.824-2.986.162-1.975-.397-4.141 1.398-5.719.703.144 1.398.279 2.102.424-.118 2.85-.451 5.71.27 8.525-.099 9.49-.198 18.98-.306 28.47 0 1.443.198 2.724 1.849 3.202z" fill="#01599A"/><path d="M78.389 425.141c.126-17.375.252-34.758.388-52.132 5.629-2.887 10.545-.93 15.335 2.174 1.705 1.109 3.527 2.038 5.304 3.049-2.661 9.733-4.195 19.647-3.284 29.733.65 7.199 1.272 14.506 4.98 21.019-8.155 2.12-15.2-2.292-22.723-3.843z" fill="#FBFCFC"/><path d="M223.981 164.083c1.137-3.915 2.093-7.902 3.482-11.727 1.236-3.401-.352-3.96-3.094-3.744-5.376.415-10.753 2.264-16.102-.144-4.041-3.5-6.783-7.479-4.844-13.18 5.827-.054 11.646-.099 17.473-.153 1.001.009 2.003.018 3.013.036 5.042 1.768 10.491.613 15.569 2.129 1.913 3.68.731 7.415.181 11.141-3.563 4.285-5.151 9.427-6.387 14.722-2.183 3.049-3.671 6.387-4.221 10.112-1.326.352-2.652.695-3.978 1.047-.325-.794-.506-1.741-1.687-1.669-1.444-2.959.667-5.683.595-8.57z" fill="#02B59E"/><path d="M139.26 362.373c3.175.352 6.323 1.065 9.544.496 1.289.902.802 2.084.505 3.23-2.679 10.383-5.368 20.766-8.047 31.14-2.904-.415-3.96-2.318-3.942-5.007.072-9.832.163-19.674.244-29.507a492.13 492.13 0 011.696-.352z" fill="#FBFCFC"/><path d="M204.352 117.877c2.824-1.84 2.697-5.376 4.52-7.803 1.136-1.507 2.282-3.401 4.51-2.246 2.192 1.136.875 2.986.298 4.501a337.66 337.66 0 01-4.177 10.465c-.839 1.993-.821 3.013 1.849 3.211 3.221.244 6.387 1.092 9.58 1.669 2.932 1.497 6.035-.208 9.012.46.424.271.848.532 1.263.803v2.147c-3.383 2.129-6.928-.334-10.356.343-5.854-.325-11.736-.496-17.401-2.283-1.055-3.852 1.416-7.442.902-11.267z" fill="#EFA59B"/><path d="M203.459 129.153c5.665 1.786 11.538 1.967 17.401 2.283.009 1.235.018 2.471.036 3.707-5.827.054-11.646.099-17.473.154.009-2.048.018-4.096.036-6.144z" fill="#085E9D"/><path d="M139.26 362.373c-.569.117-1.137.234-1.696.352.108-.145.225-.289.361-.415.451.018.893.045 1.335.063z" fill="#099B7C"/><path d="M324.128 111.644c-.686-6.648-4.015-12.007-7.596-17.51-4.258-6.54-1.939-14.984 4.474-20.225 5.305-4.339 14.091-4.32 19.575.027 6.224 4.944 8.741 14.037 4.565 20.297-3.645 5.45-7.082 10.726-7.785 17.375l-7.659-.162c-.18-4.791-.523-9.581-.442-14.362.027-1.786-1.867-5.232 2.012-5.025 3.013.163.451 3.04 1.154 4.51.163.344-.063 1.129 1.092.66.794-2.86.397-6.721 4.862-7.578 1.407-.27 2.977-1.353 2.634-3.275-.126-.694-.911-1.588-1.588-1.795-1.641-.523-2.931.56-4.149 1.516-.388.306-.704.757-.947 1.2-2.237 4.077-4.519 4.293-7.027.207-.523-.848-1.281-1.669-2.129-2.156-1.525-.884-3.365-1.525-4.438.532-.956 1.84.505 3.239 1.948 3.527 5.052 1.01 4.953 5.034 5.268 8.66.388 4.448.361 8.922.523 13.388-1.443.054-2.895.117-4.347.189z" fill="#FCBE55"/><path d="M233.263 163.171c1.236-5.295 2.824-10.437 6.387-14.722a1.13 1.13 0 01.785.27c.216 5.359 2.57 10.266 3.256 15.526l1.759 8.984-1.028 1.191c-1.308.009-2.616.009-3.924.009-1.218.199-2.147-.315-2.932-1.191-.866-3.59-.189-7.857-4.303-10.067z" fill="#099B7C"/><path d="M324.128 111.644l4.348-.19h1.217l7.659.162c1.145 4.06-1.642 6.911-3.491 9.788-1.471 2.292-4.673 2.373-6.125-.009-1.768-2.923-4.7-5.683-3.608-9.751zm-84.659 25.664c-5.078-1.515-10.527-.36-15.569-2.128.036-2.084 1.443-1.868 2.841-1.724 1.841.19 3.681.325 5.53.479 10.338.875 7.541 2.291 11.727-6.91 1.091-2.4 1.642-5.115 3.806-7.488 1.759 2.237.145 3.807-.414 5.313-1.191 3.203-2.689 6.297-3.897 9.491-.74 1.948-1.669 3.346-4.024 2.967z" fill="#085E9D"/><path d="M232.271 133.935c-1.84-.163-3.689-.298-5.53-.478-1.407-.145-2.805-.361-2.841 1.723-1.001-.009-2.003-.018-3.013-.036-.009-1.236-.027-2.472-.036-3.708 3.437-.677 6.973 1.786 10.356-.343l-.019-.018c-.009.902.244 1.678 1.056 2.174.018.235.027.46.027.686z" fill="#D7D6DF"/><path d="M363.728 86.782c-3.085 1.164-6.152 1.245-9.21-.063 3.085-1.173 6.161-1.281 9.21.063z" fill="#EFA59B"/><path d="M353.715 110.525l-6.576-7.307c.117-.144.235-.289.361-.433 2.399 2.255 4.799 4.511 7.198 6.757-.333.325-.658.658-.983.983zm-46.844.559c.379-2.679 1.994-3.284 4.041-5.169-.857 3.049-2.228 3.897-4.041 5.169zm5.791-5.782c-.225-1.092.253-1.858 1.182-2.346.117-.063.613.253.604.379-.036 1.128-.884 1.588-1.759 1.994l-.027-.027z" fill="#FCBE55"/><path d="M232.244 133.258c-.812-.505-1.064-1.281-1.055-2.174 1.199.316 1.019 1.299 1.055 2.174z" fill="#EFA59B"/><path d="M347.698 69.164c-.027.424-.063.848-.09 1.272-.198-.072-.388-.153-.586-.226.252-.324.505-.658.767-.983l-.091-.063zm-35.009 36.165c-.198.234-.405.46-.604.694-.532-.821.054-.749.577-.721l.027.027z" fill="#FCBE55"/><path d="M231.207 128.946c-.424-.27-.839-.541-1.263-.802.424.27.848.541 1.263.802z" fill="#D7D6DF"/><path d="M399.467 398.601c3.618-1.263 5.259-5.413 9.147-6.279 1.741.235 3.473.478 5.214.713 2.192 1.497 3.446 3.617 4.087 6.152-.884 8.823-3.87 17.185-5.602 25.827-5.819-.397-11.637-.785-17.446-1.181-1.11-2.959.803-5.756.442-8.67 4.501-1.732 7.947-4.862 11.059-8.425 3.933.045 5.376-3.049 7.334-5.629 1.56-2.066.505-3.618-.785-4.962-1.38-1.434-3.265-1.371-4.6.009-2.093 2.165-4.989 3.708-5.819 6.946-1.623 1.381-2.877 3.239-5.006 3.979.325-1.372.64-2.734.965-4.105.974-.992.722-2.183.55-3.365.136-.343.298-.676.46-1.01zm22.606.532c.352-.478.65-.397.902.09l-.469.091-.433-.181z" fill="#6EC8EF"/><path d="M579.969 385.295c-.108.135-.198.288-.324.397-6.991 5.989-13.955 7.613-21.397.514-2.156-2.057-5.169-3.221-8.308-5.106 5.962-3.599 11.51-6.937 17.04-10.293 1.596-.965 2.931-.298 4.284.568 2.878 1.85 5.774 3.672 8.66 5.512.009 2.806.027 5.611.045 8.408zm-5.168 28.606c-3.735 3.969-7.433 4.321-11.935.803-3.698-2.896-8.019-5.007-12.782-7.902 6.089-3.69 11.276-7.352 16.914-10.077 4.086-1.975 6.594 2.49 9.832 4.015.099 4.51-.658 8.885-2.029 13.161z" fill="#D1EBEC"/><path d="M578.382 319.289c.333-.063.667-.19 1.01-.181 15.912.28 12.169-3.085 12.755 13.144.09 2.598-1.082 3.211-3.374 3.103-3.572-.162-7.162-.135-10.743-.198.794-2.346-1.687-3.14-2.291-4.827 4.925-2.706 2.011-7.298 2.643-11.041zm28.351 8.055c.009.343.063.695 0 1.019-.433 2.247 1.344 5.684-1.064 6.541-2.869 1.028-7.226 1.542-9.427.045-3.951-2.68-.938-7.749-1.587-11.737-.235-1.425-.929-3.815 1.678-4.059 2.868-.262 5.791-.108 8.686-.027 1.66.045 1.705 1.353 1.714 2.58 0 1.885-.009 3.762 0 5.638z" fill="#FBFCFC"/><path d="M542.624 327.48c0 .343.036.686-.009 1.019-.279 2.138 1.11 5.269-.821 6.243-2.995 1.506-7.352 1.66-9.895.162-3.591-2.111-1.002-6.784-1.399-10.311-.198-1.75-1.271-4.682 1.354-5.277 2.922-.659 6.106-.262 9.164-.162 1.669.054 1.579 1.497 1.597 2.688.027 1.885.009 3.762.009 5.638z" fill="#D1EBEC"/><path d="M585.174 431.14h-32.943c5.53-3.383 10.13-6.153 14.685-9.003 1.606-1.002 2.869-.352 4.24.487 4.231 2.616 8.498 5.169 14.018 8.516z" fill="#085E9D"/><path d="M548.83 335.211c-.171.018-.361.09-.505.045-7.126-2.408-1.804-8.191-3.211-12.196-.812-2.319-.036-4.411 3.283-4.114 2.544.226 5.106.208 7.659.289.045 1.335.252 2.688.099 3.996-.568 4.754 1.173 6.955 6.134 5.828 0 1.1-.009 2.21-.009 3.311-2.833-1.949-6.143-1.498-9.264-1.615-2.779-.108-4.375 1.488-4.186 4.456z" fill="#D7D6DF"/><path d="M562.731 316.321c-.298-9.12-.668-18.24 2.977-26.919 4.068 8.534 4.321 17.781 4.952 26.946a24.614 24.614 0 01-7.929-.027zm21.099 40.558c-.938.992-1.118 1.29-1.371 1.452-14.09 8.886-14.09 8.886-29.696-1.452h31.067zm-21.55-24.51c0-1.1.009-2.21.009-3.311.108-3.256.207-6.522.316-9.778 2.733-.009 5.457-.018 8.181-.018 1.326 3.536-.505 7.938 3.022 10.861-.785 1.705-2.39 1.29-3.536.992-3.68-.965-5.439.451-5.791 4.06-.722 0-1.443.009-2.165.018-.009-.947-.027-1.886-.036-2.824z" fill="#D1EBEC"/><path d="M573.808 330.123c-3.527-2.923-1.696-7.325-3.022-10.861l7.587.027c-.632 3.743 2.291 8.344-2.652 11.05l-1.913-.216z" fill="#02B59E"/><path d="M574.801 413.901c1.38-4.276 2.137-8.651 2.038-13.162 3.221 1.822 6.45 3.645 10.401 5.873-4.384 2.95-8.146 5.539-12.439 7.289z" fill="#FBFCFC"/><path d="M562.605 319.279c-.109 3.257-.208 6.523-.316 9.779-4.961 1.128-6.702-1.064-6.134-5.827.153-1.308-.054-2.662-.099-3.997 2.183.018 4.366.036 6.549.045z" fill="#099B7C"/><path d="M562.28 332.369c.009.938.027 1.877.036 2.815l-13.486.027c-.189-2.977 1.408-4.574 4.177-4.466 3.13.136 6.432-.315 9.273 1.624zm11.528-2.246l1.922.217c.604 1.686 3.085 2.48 2.291 4.826-4.51 0-9.021.009-13.531.009.352-3.609 2.111-5.025 5.791-4.06 1.137.298 2.742.713 3.527-.992z" fill="#0C0A0A"/><path d="M579.969 385.295c-.018-2.805-.036-5.602-.063-8.407 2.309 1.281 4.619 2.562 7.568 4.203-2.949 1.66-5.222 2.932-7.505 4.204z" fill="#FBFCFC"/><path d="M275.489 391.159c.956.514 1.903 1.038 2.85 1.552-2.129.478-3.789 1.299-3.87 3.933-.081 2.571 1.543 3.626 3.491 4.411 1.714.695 3.518 1.173 5.277 1.75.857 7.416.695 14.849.532 22.282-5.827.072-11.654.153-17.49.235-1.227-.975-.966-2.409-1.155-3.708.027-1.994.893-4.79-.09-5.818-3.139-3.293-.984-5.972.09-8.904.009-3.681.027-7.37.036-11.051 1.497-1.227 3.004-2.454 4.501-3.68 1.949-.334 3.888-.668 5.828-1.002z" fill="#02B59E"/><path d="M292.032 382.806c1.75.983 3.04 2.544 2.661 4.474-.884 4.447 1.372 8.092 2.544 12.025.578 4.574-1.308 6.125-5.719 4.736-1.885-.595-3.816-1.028-5.728-1.534.442-1.984.893-3.969 1.335-5.953 1.543.433 3.139 2.399 4.565 1.019 1.154-1.119.523-3.257.045-4.862-.857-2.887-1.922-5.711-2.896-8.57.695-1.326 1.939-1.326 3.193-1.335z" fill="#EFA59B"/><path d="M287.125 396.544c-.442 1.985-.893 3.969-1.335 5.954-.848.099-1.696.207-2.544.307-1.759-.578-3.563-1.056-5.277-1.751-1.948-.784-3.572-1.84-3.491-4.411.09-2.634 1.75-3.446 3.87-3.933 3.202.649 6.152 1.867 8.777 3.834z" fill="#099B7C"/><path d="M218.812 363.257c1.922 11.231 5.142 22.155 7.857 33.197.199.821.325 1.669.478 2.499-1.741.018-3.482.045-5.232.063 1.516-1.001 2.255-2.138 1.85-4.195-1.308-6.549-1.57-6.838-9.183-6.829-.776-.532-.857-1.299-.704-2.138 2.282-.568 6.161 1.579 6.621-1.614.559-3.906-1.091-8.128-3.103-11.619-1.452-2.526-4.691-.776-7.108-1.101-.875-.884-.767-2.003-.758-3.103 3.302-.217 8.353 1.669 6.143-5.133 1.056 0 2.093-.009 3.139-.027z" fill="#D7D6DF"/><path d="M265.133 406.891c-1.073 2.923-3.229 5.612-.09 8.904.983 1.029.108 3.834.09 5.819-.956-.686-1.985-1.29-2.86-2.066-6.603-5.909-6.747-7-2.119-14.984 2.056-.063 3.211 1.786 4.979 2.327z" fill="#EFA59B"/><path d="M214.582 388.01c7.604-.018 7.875.28 9.183 6.829.405 2.057-.325 3.194-1.85 4.195l-2.11.027c-.767-.965-1.85-.712-2.86-.758-.983-3.391-2.174-6.729-2.363-10.293z" fill="#FBFCFC"/><path d="M265.133 406.892c-1.768-.542-2.923-2.391-4.979-2.337.658-1.768 1.308-3.527 1.966-5.295 1.019-1.137 2.03-2.274 3.049-3.419-.009 3.689-.027 7.37-.036 11.051z" fill="#099B7C"/><path d="M216.945 398.294c1.01.045 2.093-.208 2.86.758-.695.135-1.381.27-2.066.397-.262-.379-.523-.767-.794-1.155zm41.08.731c1.019-.983 2.029-.992 3.058-.009-1.02.009-2.039.009-3.058.009z" fill="#D7D6DF"/><path d="M192.968 296.177c38.996.009 77.992.1 116.988-.081 4.808-.027 6.17 1.353 5.99 6.062a376.226 376.226 0 00-.009 27.821c.18 4.934-1.389 6.513-6.396 6.477-31.608-.199-63.216-.099-94.824-.099-1.028 0-2.057.054-3.094.081-3.184-2.129-6.775-.523-10.13-1.083-2.4-4.772-2.968-10.076-4.411-15.128-.325-1.145-.352-2.526-1.904-2.634-1.551-.108-2.056.893-1.957 2.309l-3.735 14.127c-.83.127-1.659.262-2.489.388-.127-5.151-4.529-3.906-7.397-4.961 1.028-11.213 1.867-22.454 5.43-33.252l7.938-.027zm-40.105 53.44c-1.651-.478-1.849-1.75-1.831-3.202.108-9.49.207-18.98.306-28.47 4.691-1.651 3.121-5.783 3.627-9.102 2.733-.406 5.466-.803 8.199-1.209 0 .343.009.694.009 1.037.009 2.914.018 5.828.036 8.742-.694.369-1.65.405-1.822 1.434-3.202 10.167-4.681 20.793-8.524 30.77z" fill="#B6E4F8"/><path d="M188.846 423.264c-4.709.199-8.317-2.67-12.322-4.429-1.696-.749-3.455-1.362-5.187-2.03.568-5.683 1.903-11.168 4.068-16.454 2.328-.568 4.628-1.335 7.081-1.055 2.12 7.983 4.24 15.976 6.36 23.968z" fill="#D1EBEC"/><path d="M209.575 385.557l-2.183.027c-.297-.46-.604-.46-.902 0-4.808-.018-9.616-.027-14.433-.045-2.282-4.637-.045-9.274 0-13.911 1.02-.09 2.048-.234 3.067-.252 13.468-.253 13.468-.244 15.2 13.558-.244.217-.496.415-.749.623zm-32.167-3.888c-.352.74-.695 1.48-1.047 2.21-.64.569-1.28 1.137-1.921 1.714-5.475-.018-10.942-.027-16.417-.045.054-4.871 2.083-9.309 3.03-13.982l13.45-.352c2.418 3.085 2.887 6.711 2.905 10.455z" fill="#FBFCFC"/><path d="M199.869 419.719c-9.219 0-11.97-2.743-12.169-11.926-.027-1.389.054-2.463 1.696-2.381 7.226.36 14.532-1.137 21.695.848-3.753 4.492-7.487 8.975-11.222 13.459z" fill="#D1EBEC"/><path d="M211.488 389.048c.884 3.419 1.777 6.847 2.661 10.266-6.333 0-12.674 0-19.007-.009.226-3.807-1.281-7.298-2.038-10.925l14.396-.054c1.164 1.119 2.634.578 3.988.722z" fill="#FBFCFC"/><path d="M184.751 363.365c.063-3.247-.154-7.722 2.751-8.705 4.555-1.543 10.04-1.813 14.55.18 2.553 1.128 2.4 5.368 3.211 8.3-6.837.072-13.675.153-20.512.225zm-31.915-.216c2.291-9.174 2.291-9.174 11.898-9.174 1.885 0 3.77-.028 5.647-.037 1.641 2.77 2.607 5.693 2.138 8.967l-19.683.244zm47.033 56.57c3.735-4.484 7.469-8.967 11.213-13.45 3.148-1.525 4.88-.957 5.809 2.832 3.139 12.792 3.518 10.663-8.344 10.789-2.887.036-5.782-.108-8.678-.171z" fill="#085E9D"/><path d="M163.2 317.421c-.009-2.914-.018-5.828-.036-8.741 3.275-.686 6.549-1.363 9.824-2.048-.027 3.716-.063 7.442-.09 11.159-3.131 3.834-2.481 9.075-4.908 13.161-2.327-4.248-1.551-9.598-4.79-13.531z" fill="#FBFCFC"/><path d="M172.483 349.626c-1.047-3.906-2.084-7.803-3.167-11.854 3.663-.848 7.018-.442 10.365-.171 2.084 3.554.767 8.669 5.115 11.186.207.325.198.649-.009.974l-12.304-.135zm18.573-12.169c8.47-.406 9.652.992 10.211 12.16-4.14.027-8.272.045-12.403.072-.776-4.348 1.813-8.092 2.192-12.232z" fill="#D1EBEC"/><path d="M184.751 363.365c6.837-.072 13.675-.153 20.512-.234 1.768 4.312.65 6.062-4.266 5.548-4.06-.424-8.218-.298-12.304-.054-4.303.27-6.098-.902-3.942-5.26zm-31.915-.216c6.558-.081 13.125-.162 19.692-.253 1.488 1.552 1.777 3.519 1.948 5.539-5.818.045-11.654-.18-17.455.217-4.726.325-6.485-.848-4.185-5.503zm57.461 8.389c2.417.325 5.647-1.425 7.108 1.101 2.012 3.491 3.662 7.713 3.103 11.619-.451 3.184-4.339 1.046-6.621 1.615-1.2-4.782-2.399-9.554-3.59-14.335zm1.182-22.29c-1.696.036-3.392.063-5.079.099-.623-.208-1.236-.406-1.858-.614-.893-3.301-1.777-6.603-2.67-9.914 2.516-1.759 5.782-2.859 7.279.199 1.48 3.004 2.986 6.504 2.328 10.23z" fill="#FBFCFC"/><path d="M195.142 399.313c6.333 0 12.674 0 19.007.01 1.037 2.092.613 3.22-1.94 3.202-7.884-.036-15.759-.054-23.643.018-2.363.018-2.977-1.164-2.778-3.202l7.18-.028h2.174z" fill="#D1EBEC"/><path d="M186.735 385.503c-4.943 1.47-6.179-1.696-6.071-5.431.099-3.563-2.354-9.192 5.124-8.488 1.551 4.555 2.454 9.156.947 13.919z" fill="#FBFCFC"/><path d="M176.397 363.311c-1.073-.866-.793-2.201-1.136-3.32-.541-1.777-1.804-3.924-.153-5.277 1.921-1.579 4.627-.649 6.981-.577 1.408.045 1.399 1.046 1.083 2.219-.604 2.3-1.046 4.646-1.552 6.973-1.741.009-3.482-.009-5.223-.018z" fill="#01599A"/><path d="M179.6 329.455c2.868 1.056 7.27-.189 7.397 4.962-4.529 1.253-9.075 1.19-13.612.045-.054-1.498-.018-2.959 1.551-3.789 1.597-.253 3.401.325 4.664-1.218z" fill="#333A74"/><path d="M186.735 385.502c1.507-4.763.605-9.363-.947-13.919l6.269.054c-.036 4.637-2.273 9.274 0 13.91-1.777-.018-3.545-.027-5.322-.045z" fill="#D7D6DF"/><path d="M184.796 348.787c-4.348-2.526-3.031-7.631-5.115-11.186 2.823-.063 5.647-.117 8.47-.18-.532 3.96-1.055 7.929-3.355 11.366zm-2.31 50.508c-2.453-.279-4.753.487-7.081 1.056.298-4.899 2.147-9.427 3.365-14.1 2.048 4.114 2.805 8.597 3.716 13.044z" fill="#FBFCFC"/><path d="M211.479 349.247c.649-3.716-.857-7.216-2.328-10.229-1.497-3.05-4.763-1.958-7.279-.199-.866-1.073-.65-2.264-.379-3.464 3.355.55 6.937-1.055 10.13 1.083-.018 4.537 2.029 8.561 3.175 12.8-1.109 0-2.21.009-3.319.009z" fill="#D7D6DF"/><path d="M192.977 399.314l-7.18.027a.819.819 0 01-.235-.722c.749-2.381 1.714-4.709 2.183-7.144.37-1.958 1.272-2.562 3.067-2.282l2.165 10.121z" fill="#FBFCFC"/><path d="M167.981 330.953c2.427-4.096 1.786-9.328 4.917-13.162.514 3.446.523 6.901.126 10.356-2.724 1.272-1.597 4.24-2.733 6.216-2.734.198-1.994-1.967-2.31-3.41z" fill="#D7D6DF"/><path d="M184.796 348.787c2.309-3.437 2.823-7.406 3.355-11.366.975.009 1.94.027 2.914.036-.379 4.141-2.968 7.884-2.192 12.232-.767.515-1.019 1.254-.974 2.138-1.056 0-2.102-.009-3.157-.009.018-.685.027-1.371.045-2.056.207-.316.216-.641.009-.975z" fill="#099B7C"/><path d="M166.168 337.295c1.498 3.987 3.211 7.92 3.085 12.323-2.029-.118-4.068-.226-6.098-.343-.018-.505-.027-1.02-.045-1.525 2.607-2.841 2.661-6.486 3.13-10.004l-.18-.198.108-.253zm24.635 51.888c-1.795-.28-2.697.325-3.067 2.282-.46 2.436-1.434 4.763-2.183 7.145-.333-.938-.703-1.858-.992-2.815-2.49-8.191-2.49-8.191 6.369-7.433a3.03 3.03 0 01-.127.821z" fill="#D1EBEC"/><path d="M215.682 363.293c2.201 6.802-2.85 4.926-6.143 5.133-1.028-1.606-1.263-3.401-1.29-5.25 2.481.045 4.952.081 7.433.117z" fill="#FBFCFC"/><path d="M189.486 334.029l3.735-14.127c1.2 1.245 1.84 2.707 1.804 4.448-1.741 3.04-1.714 6.594-2.805 9.824-.984 1.335-1.877.956-2.734-.145z" fill="#099B7C"/><path d="M192.22 334.174c1.091-3.23 1.073-6.775 2.805-9.824.559 1.768 1.209 3.518 1.669 5.313 1.299 5.106.866 5.521-4.474 4.511zm-26.079.08c-3.996 1.119-6.639.983-5.106-4.492.542-1.931.821-3.888 2.039-5.548 1.028 3.347 2.048 6.693 3.067 10.04z" fill="#B6E4F8"/><path d="M163.155 349.266c2.03.117 4.06.225 6.098.342.758.542 1.047 1.299 1.047 2.192-3.834.028-7.668.1-11.493.046-1.353-.018-3.527.297-1.723-2.256l6.071-.324z" fill="#085E9D"/><path d="M187.899 351.827c-.054-.884.207-1.623.974-2.138 4.131-.027 8.272-.045 12.403-.072 1.489 2.219-.234 2.201-1.623 2.219-3.924.045-7.839 0-11.754-.009z" fill="#01599A"/><path d="M190.803 389.183a3.12 3.12 0 00.118-.812c.721 0 1.443.009 2.174.009.757 3.627 2.264 7.118 2.038 10.925h-2.165c-.712-3.365-1.434-6.739-2.165-10.122z" fill="#D7D6DF"/><path d="M184.778 349.762c-.018.685-.027 1.371-.046 2.056-2.733.009-5.466.009-8.199.036-1.786.018-3.482-.081-4.05-2.237 4.104.054 8.199.099 12.295.145z" fill="#01599A"/><path d="M176.397 363.311l5.223.027c-.09.649-.009 1.407-.315 1.939-.659 1.164-.109 3.311-2.337 3.239-2.029-.064-2.038-1.85-2.408-3.239-.154-.622-.108-1.308-.163-1.966zm-6.106-28.948c1.136-1.967.018-4.935 2.733-6.216.64.839 1.272 1.678 1.912 2.526-1.569.83-1.615 2.292-1.551 3.789-1.029-.036-2.066-.063-3.094-.099z" fill="#FBFCFC"/><path d="M211.488 389.047c-1.345-.144-2.824.397-3.997-.721 1.399-.135 2.95-1.11 3.997.721z" fill="#D1EBEC"/><path d="M204.542 348.733c.622.208 1.245.406 1.858.614l-1.912.298a2.21 2.21 0 01.054-.912zm5.033 36.824c.253-.208.505-.406.758-.614.081.623-.171.821-.758.614zm-3.085.027c.307-.451.605-.46.902 0l-.451.153-.451-.153z" fill="#D7D6DF"/><path d="M389.743 479.988c-.613-.451-1.217-.902-1.831-1.353 2.715-2.057 3.617-5.025 4.204-8.191 1.443-7.722 4.384-15.165 4.176-23.193-.045-1.868 1.038-3.085 3.166-4.321 2.851 11.168 8.471 20.784 13.08 30.86.857 1.886 1.823 3.6 3.509 4.845-3.022.334-6.368-1.263-8.975 1.524-5.764-.712-11.547-.406-17.329-.171z" fill="#FBFCFC"/><path d="M407.081 480.15c2.607-2.787 5.953-1.19 8.975-1.524.875.216 1.75.433 2.607.649 1.362 1.236 2.535 3.049-.108 3.491-3.428.578-7.036.244-10.545.082-2.057-.091-.875-1.696-.929-2.698z" fill="#333A74"/><path d="M156.633 419.728c-4.609-.018-9.219-.027-13.828-.072-1.164-.009-3.076.388-3.32-.631-.974-4.132 1.498-7.822 2.075-11.791.316-2.156 2.111-1.876 3.617-1.876 7-.018 14.009.153 21.009-.072 3.744-.118 5.07.857 3.572 4.618-.748 1.886-1.091 3.942-1.614 5.918-4.276 0-8.218.992-11.511 3.906z" fill="#D1EBEC"/><path d="M174.9 389.057c-.893 3.419-1.795 6.829-2.688 10.248l-17.41.027c.397-3.618.794-7.226 1.2-10.843l17.419-.163c.496.244.983.487 1.479.731zm-20.143-3.528c-2.03.019-4.068.028-6.098.046-.334-.217-.658-.442-.992-.659-.081-3.951 1.416-7.596 2.49-11.258 1.281-4.357 5.078-1.588 7.748-2.066-1.046 4.637-2.092 9.292-3.148 13.937z" fill="#FBFCFC"/><path d="M154.811 399.332l17.41-.028c.225 2.941-1.597 3.257-3.924 3.239-6.991-.063-13.982-.189-20.964.045-4.023.135-4.916-1.245-3.211-4.718 2.129 2.553 5.042 1.047 7.586 1.453 1.029 0 2.066 0 3.103.009z" fill="#D1EBEC"/><path d="M151.699 399.314c-2.544-.406-5.457 1.101-7.586-1.452.649-3.013.911-6.144 2.625-8.832l.902-.713c1.696 0 3.392.009 5.087.009.74 3.762-.983 7.298-1.028 10.988z" fill="#FBFCFC"/><path d="M151.609 422.155c-4.249 4.15-9.129 6.649-15.272 5.864.199-4.962 2.742-6.703 7.586-5.954 2.508.379 5.124.081 7.686.09z" fill="#D1EBEC"/><path d="M163.155 349.265l-6.08.325c-.748-3.735 1.083-7.019 1.85-10.483.568-2.571 2.643-1.434 4.203-1.515-.009 3.383-.009 6.756-.018 10.139.018.515.036 1.029.045 1.534z" fill="#B6E4F8"/><path d="M154.757 385.53c1.055-4.646 2.102-9.301 3.157-13.947 1.047 0 2.102-.009 3.148-.009-.947 4.673-2.976 9.111-3.03 13.983l-3.275-.027z" fill="#D7D6DF"/><path d="M156.633 419.729c3.293-2.914 7.235-3.907 11.511-3.916.261 2.788-.893 4.231-3.807 4.114-2.562-.099-5.133-.135-7.704-.198z" fill="#085E9D"/><path d="M151.699 399.314c.045-3.69 1.768-7.226 1.038-10.988l3.265.163c-.397 3.617-.794 7.225-1.2 10.843-1.028-.009-2.065-.009-3.103-.018z" fill="#D7D6DF"/><path d="M163.11 347.741c.009-3.383.009-6.757.018-10.139l3.112.135c-.46 3.518-.523 7.154-3.13 10.004z" fill="#FBFCFC"/><path d="M174.44 385.593c.64-.568 1.281-1.137 1.921-1.714.118 1.425-.469 2.057-1.921 1.714zm.46 3.464a113.27 113.27 0 01-1.479-.74c.667-.108 1.632-.812 1.479.74zm-27.224-4.141c.334.217.658.442.992.659-.613.198-1.01.081-.992-.659z" fill="#D7D6DF"/><path d="M134.199 437.509c.74.397.677.721-.09.983.018-.325.045-.649.09-.983z" fill="#085E9D"/><path d="M147.649 388.318l-.902.712c-.135-.785.27-.893.902-.712z" fill="#D7D6DF"/><path d="M369.546 399.08c.226-3.753.65-7.515-.325-11.24-.297-1.155-2.408-2.4-.514-3.392 1.389-.731 3.41-.551 4.592 1.19.469.695.929 1.399 1.732 2.607 1.696-3.797 4.546-4.248 7.983-4.095 5.818.253 11.655.072 17.464.072 1.028 2.183-1.056 3.176-1.462 4.709-6.81.027-13.621.126-20.431.027-2.553-.036-3.446.451-3.193 3.374.433 5.07.153 10.203.171 15.318 1.434 3.184-.929 3.951-3.094 4.844-2.165-.316-2.607-1.669-2.571-3.681.054-3.247-.216-6.486-.352-9.733z" fill="#F07045"/><path d="M372.469 412.485c2.165-.893 4.528-1.66 3.094-4.845 5.62 4.051 11.763 3.131 18.014 2.138 1.939-.306 3.202-.911 3.888-2.706 2.129-.749 3.383-2.598 5.006-3.978l3.879 3.635c-3.112 3.563-6.549 6.694-11.059 8.426-5.872.361-11.754-1.597-17.653.424-2.436.83-4.087-.956-5.169-3.094z" fill="#EFA59B"/><path d="M364.251 399.043c.352-.523.704-.523 1.056 0h-1.056zm-5.16 0c.352-.523.704-.514 1.056 0h-1.056z" fill="#B6E4F8"/><path d="M153.386 426.909c-.126.289-.244.568-.37.857-.289-.126-.731-.18-.812-.388-.081-.207.199-.55.325-.839.28.126.568.244.857.37z" fill="#085E9D"/><path d="M258.205 479.916a94.469 94.469 0 011.922-1.876c.18.198.378.244.586.153 3.238 1.525 7.207-.721 10.265 1.922.036.839.442 1.975.045 2.454-.992 1.19-11.898 1.028-12.728-.172-.388-.577-.081-1.642-.09-2.481z" fill="#333A74"/><path d="M457.614 201.295l8.804-.217c2.048 2.409 1.66 5.395 1.822 8.191.587 10.356 1.029 20.73 1.534 31.086-1.407 4.863-1.804 9.824-1.434 14.858-2.869-2.914-6.198-4.844-10.428-4.186-1.904.298-4.393.415-3.626 3.591-.316 1.272-.172 2.724-1.444 3.608l-19.232 1.083c-2.038-2.959-3.869-5.999-4.212-9.689 2.399-.072 4.808-.108 7.198-.235 1.534-.081 2.679-.676 2.499-2.516-.172-1.651-1.101-2.409-2.742-2.364-1.372.036-2.752 0-4.114.081a57353.164 57353.164 0 00-79.065 4.403c-1.786.099-4.168-.28-4.195 2.543-.036 3.446 2.724 2.472 4.529 2.382 22.425-1.137 44.85-2.364 67.266-3.563 3.816 2.138 8.019 3.969 7.415 9.544-9.418.442-18.835.821-28.243 1.353-7.686.433-15.363 1.11-23.048 1.588-13.332.821-26.674 1.542-40.006 2.363-2.219.136-3.527-.261-3.609-2.941a286.449 286.449 0 00-.992-16.923c-.866-9.896-.559-19.864-2.093-29.706.46-2.174-.667-4.565.857-6.603 3.013.541 5.927-.433 8.895-.587 21.983-1.182 43.984-2.156 65.949-3.671 6.08-.415 12.304.487 18.276-1.408 11.176.027 22.335-.604 33.439-2.065zm-7.64 26.774c0 .081.009.171.009.252-25.15 1.408-50.299 2.779-75.448 4.222-7.866.451-15.723 1.119-23.58 1.615-1.714.108-3.094.289-2.968 2.499.117 1.993 1.263 2.661 3.085 2.544.686-.045 1.371-.099 2.057-.145 7.857-.55 15.714-1.199 23.579-1.641 20.703-1.173 41.423-2.102 62.107-3.473 5.476-.361 10.942-.605 16.418-.885 1.768-.09 2.949-.541 2.94-2.643-.009-2.219-1.335-2.435-3.058-2.372-1.713.072-3.427.027-5.141.027zm-97.206-4.222c0-.081-.009-.153-.009-.234 11.483-.623 22.975-1.2 34.458-1.886 15.597-.929 31.185-1.957 46.772-2.896 1.858-.108 3.419-.18 3.302-2.733-.109-2.282-1.552-2.327-3.185-2.309-.685.009-1.38.009-2.065.045-18.177 1.055-36.344 2.102-54.521 3.193-9.083.55-18.149 1.218-27.233 1.768-1.876.109-3.419.199-3.292 2.743.108 2.264 1.542 2.336 3.184 2.318.875-.018 1.732-.009 2.589-.009z" fill="#FCBE55"/><path d="M178.553 221.808c.009-9.625.118-19.251-.027-28.867-.045-3.085.839-4.168 4.06-4.159 43.136.09 86.272.09 129.4.009 3.229-.009 4.077 1.155 4.068 4.204-.09 23.716-.135 47.432.036 71.149.027 4.077-1.885 4.275-5.024 4.275-35.577-.072-71.146-.054-106.723-.036-2.056 0-4.113.154-6.17.235a3.383 3.383 0 01.009-.523c-.036-.866-.072-1.732-.099-2.589h91.631c-8.046-11.421-15.624-21.993-24.509-31.511-.081-.857-.18-1.705-.243-2.562-.307-4.248 1.713-9.435-.857-12.53-2.689-3.229-8.065-.568-12.178-1.461-4.501-7.524-4.844-7.569-11.014-1.516-.469.469-.866 1.011-1.299 1.525-3.121.153-6.243.316-9.355.469-1.416-1.073-1.957-3.211-4.104-3.401-.253-1.299-.857-2.354-2.093-2.959l-5.196-6.143c-1.623-1.976-3.364-3.87-4.853-5.945-1.957-2.724-3.897-2.787-6.305-.586-8.452 7.713-16.968 15.372-25.456 23.048-.325.433-.65.857-.965 1.29-.911-.487-1.823-.947-2.734-1.416zm106.245-12.35c.009 6.414 5.024 11.421 11.375 11.349 5.872-.072 11.149-5.259 11.285-11.096.153-6.459-5.151-11.646-11.799-11.538-6.062.099-10.87 5.097-10.861 11.285z" fill="#6EC8EF"/><path d="M433.34 336.483c-33.665-.045-67.339-.126-101.004-.072-4.077.009-6.17-.235-6.594-5.539-1.263-15.796-.117-31.565-.604-47.333-.135-4.303 2.95-3.843 5.71-3.843h75.755c10.653 0 21.297-.009 31.951-.018.09.162.18.315.27.478-.424 8.425-1.641 16.815-1.317 25.286-31.608.027-63.225.063-94.833.099-1.371 0-2.751-.027-4.123.036-1.759.072-2.985.848-3.03 2.778-.046 2.256 1.596 2.292 3.202 2.301 1.714.009 3.437.009 5.151.009 30.579.081 61.15.162 91.73.234-.758 2.075-1.552 4.141-2.282 6.234-2.12 6.071-3.392 12.142-.027 18.222.027.37.036.749.045 1.128zm-53.104-10.392c13.567 0 27.124.027 40.691-.027 2.093-.009 5.097.685 4.908-2.77-.163-2.941-2.923-2.318-4.881-2.327a34155.99 34155.99 0 00-80.346.009c-2.093 0-5.096-.659-4.916 2.778.162 2.941 2.923 2.31 4.88 2.319 13.224.036 26.448.018 39.664.018zm.288-30.888c13.558 0 27.107.045 40.665-.054 1.759-.009 4.745 1.172 4.682-2.201-.063-2.923-2.779-1.931-4.438-1.94-27.107-.054-54.223-.054-81.33 0-1.66 0-4.384-.974-4.429 1.949-.045 3.355 2.941 2.165 4.7 2.183 13.377.099 26.764.054 40.15.063zm-182.297-20.722c36.958.027 73.924.036 110.881.117 2.237.009 5.548-1.172 6.306 1.859.938 3.752 1.235 7.947-.244 11.619-.713 1.768-3.464.848-5.286.848-36.272.036-72.543.027-108.824.036-2.228 0-4.465.117-6.703.171l-6.621-.189c.415-4.123 2.679-7.894 2.301-12.17.135-.748.27-1.497.396-2.246 2.607-.009 5.205-.027 7.794-.045zm-47.123 6.188c-.018-34.622-.036-69.245-.045-103.867 0-1.019.153-2.048.234-3.067 3.969-.009 7.938-.009 11.916-.018.018 30.617.045 61.225.064 91.833-4.384 6.089-6.198 13.712-11.448 19.296-.279-1.389.244-2.905-.721-4.177z" fill="#B6E4F8"/><path d="M330.18 215.611c1.525 9.841 1.218 19.819 2.093 29.706.496 5.629.83 11.276.992 16.923.082 2.679 1.39 3.076 3.609 2.941 13.332-.812 26.674-1.543 40.006-2.364 7.685-.469 15.362-1.145 23.048-1.587 9.408-.533 18.826-.911 28.243-1.354 3.157 2.039 1.317 5.566 2.436 8.255 2.318 5.566 7.64 5.945 12.268 7.577-.433 2.481 1.957 2.102 3.067 3.022-2.039 2.129-4.845.406-7.109 1.417-.09-.163-.189-.316-.279-.478-2.49-2.571-5.034-4.935-8.822-5.612-1.606-.288-4.033-1.172-4.412-2.336-2.877-8.786-10.184-5.755-15.443-5.115-7.658.929-15.335.704-22.993 1.444-15.29 1.479-30.706 1.632-46.068 2.372-3.401.162-6.703 1.227-10.185 1.028-2.237-.126-3.391-.604-3.545-3.166-.929-15.498-1.867-31.005-3.112-46.485-.415-5.025 1.344-6.901 6.206-6.188z" fill="#D7D6DF"/><path d="M163.209 173.717c-3.969.009-7.947.009-11.916.018-.045-.162-.117-.325-.135-.496-.992-9.147-.992-9.147 7.947-9.147h64.876c.081 2.877-2.03 5.611-.604 8.579-.009 0-.343.334-.343.334-.749.207-1.507.405-2.255.613-.65 0-1.299 0-1.94-.009-1.398 0-2.796.009-4.194.009-17.148.036-34.287.063-51.436.099z" fill="#49B3D7"/><path d="M373.795 189.071l-31.554 14.424c-3.933-.072-7.866-.279-11.79-.18-2.796.072-4.691-.397-4.573-3.771.036-1.155-.578-2.318-.704-3.491-.722-6.856-.397-7.208 6.567-7.181 14.027.045 28.045.127 42.054.199z" fill="#B6E4F8"/><path d="M178.553 221.808c.912.46 1.823.929 2.734 1.398.577 1.173.55 2.318-.1 3.455-2.606 1.29-.965 6.143-5.132 6.134.054.614-.099 1.642.189 1.786 3.635 1.823 2.76 5.882 4.393 8.66-.73 1.678-2.192 3.428-2.047 5.034.433 4.853-2.544 6.134-6.252 7-1.055-.054-2.111-.099-3.166-.153-5.34-2.805-6.783-9.616-3.22-16.337.839-1.57 1.245-2.995 1.263-4.745.09-7.785 3.238-11.114 11.338-12.232z" fill="#333A74"/><path d="M169.181 255.122c1.055.054 2.111.099 3.166.153-.523 3.113 1.407 6.081.541 9.202-2.164.875-4.095 1.984-4.636 4.519-.731.641-1.173 1.408-1.065 2.418l.037-.063c-1.029.37-1.272 1.127-1.065 2.111l.018-.054c-1.759-.172-2.426 1.073-3.076 2.345-1.705 1.813-3.978 3.338-4.059 6.143-.144 5.034-3.626 5.115-7.244 5.079.018-.713.027-1.425.045-2.138 5.25-5.584 7.064-13.198 11.448-19.296 3.337-2.679 3.364-7.253 5.89-10.419z" fill="#EFA59B"/><path d="M433.34 336.483l-.027-1.137c2.372-.027 4.745-.063 7.117-.09 1.966 4.592 2.598 9.472 3.067 14.379l-5.981.136c-.73-.163-1.452-.334-2.183-.497.451-4.438-1.109-8.56-1.993-12.791z" fill="#D7D6DF"/><path d="M223.034 173.005l.343-.334c1.19-.072 1.371.875 1.696 1.669-.569 2.959 2.318 2.39 3.59 3.401 2.381 1.894 4.835 3.554 2.065 7.117-3.094-2.111-6.016-4.195-9.029-6.143-1.407-.911-1.931-1.813-.758-3.23.316-1.145 3.969.515 2.093-2.48zm17.473 1.434c1.308 0 2.616-.009 3.924-.009 1.596 1.921 4.104.974 6.053 1.939 1.777.884 2.841 2.075 2.264 3.96-.668 2.174-2.255.506-3.356.379-2.012-.225-3.96-.947-5.972-1.163-3.454-.388-3.96-2.256-2.913-5.106z" fill="#085E9D"/><path d="M233.263 163.172c4.114 2.21 3.437 6.477 4.312 10.067-2.841.46-5.683.424-8.533.045.559-3.725 2.047-7.063 4.221-10.112z" fill="#49B3D7"/><path d="M187.754 288.96l6.621.189c-.469 2.346-.929 4.691-1.398 7.037l-7.947.027c.713-2.499 1.146-5.088 2.724-7.253zm10.473-14.478c-2.598.018-5.187.036-7.775.063-.172-2.093-.451-4.195.27-6.252 2.49-.072 4.98-.135 7.46-.207a2.54 2.54 0 000 .523c.018 1.949.027 3.915.045 5.873z" fill="#D7D6DF"/><path d="M214.636 173.617c1.398 0 2.796-.009 4.194-.009-1.389 1.101-2.787 1.074-4.194.009zm8.398-.612c1.876 3.004-1.768 1.335-2.093 2.481l-.162-1.868c.748-.207 1.497-.415 2.255-.613zm255.562.776l11.51-.352c.1 2.228.298 4.447.298 6.675.018 53.756.036 107.512-.009 161.268-.009 8.769 1.434 7.876-7.911 7.948-1.191.009-2.391-.154-3.581-.244-.054-36.778-.1-73.557-.154-110.326-.045-21.66-.108-43.31-.153-64.969z" fill="#B6E4F8"/><path d="M443.488 349.635c-.469-4.907-1.101-9.788-3.067-14.379-2.526-8.597-.37-16.617 3.013-24.492.514-1.453 1.028-2.905 1.533-4.357.343-.677.686-1.353 1.02-2.03 6.016.153 12.042.307 18.059.451.577 14.803 1.858 29.589 1.669 44.419-.199 3.338-.388 6.676-.587 10.014-1.696-.298-3.599.306-4.997-1.227-1.317-2.643-.126-5.936-2.21-8.381.64-4.979-.532-9.733-1.759-14.478.036-4.953-1.209-9.545-3.635-13.929-5.151 4.448-5.368 5.801-2.49 14.091.415 4.673.83 9.337 1.254 14.01-.975 2.886.839 6.215-1.417 8.903-1.109-.559-2.264 1.011-3.364-.072-1.002-2.851-2.012-5.692-3.022-8.543z" fill="#333A74"/><path d="M451.309 349.347c-.415-4.673-.83-9.337-1.254-14.001l6.125-.162c1.227 4.754 2.399 9.508 1.759 14.478-2.219-.099-4.42-.207-6.63-.315z" fill="#D7D6DF"/><path d="M443.488 349.635l3.031 8.534c-2.318-.018-4.637-.045-6.955-.064-1.137-2.67-4.979-4.663-2.066-8.335l5.99-.135z" fill="#01599A"/><path d="M439.573 358.115c2.318.018 4.637.045 6.955.063 1.091 1.083 2.255-.487 3.365.073 2.065 2.886 1.326 4.248-2.219 4.158-2.183-.054-4.366.018-6.549-.09-1.092-.054-2.535.514-3.14-.866-.694-1.579.641-2.418 1.588-3.338zm20.567-.073c1.389 1.525 3.302.93 4.997 1.227.623 2.283-.342 3.176-2.598 3.104-2.57-.073-5.15.009-7.73-.064-.947-.027-2.273.361-2.58-.983-.316-1.38.785-2.246 1.822-2.787 1.921-1.02 4.059-.289 6.089-.497z" fill="#0C0A0A"/><path d="M464.055 304.837c-6.017-.153-12.043-.307-18.059-.451-.28-8.281-.56-16.554 1.416-24.7 1.019.009 2.039.064 3.049.009 2.102-.099 4.618.641 5.475-2.336.821-2.833-.839-4.429-2.995-5.728.424-.289.857-.578 1.281-.866l5.873.757c.505.758 1.263.812 2.066.758.64 2.977 2.67 5.584 2.345 8.814-.153 7.902-.307 15.823-.451 23.743z" fill="#02B59E"/><path d="M468.331 255.222c-.379-5.034.027-9.995 1.434-14.858 3.022-.09 4.772 1.362 3.78 4.312-1.489 4.43-1.056 8.778.117 13 1.768 6.341.198 11.664-3.834 16.535-1.299-1.281-2.598-2.553-3.888-3.834l.19-3.401v.163c.838.018 1.145-.442 1.082-1.218l-.126.189c1.254-.045 1.218-1.019 1.344-1.876 1.371-3.022 1.191-6.026-.099-9.012z" fill="#EFA59B"/><path d="M463.234 199.301c-9.553-2.941-19.006-6.162-28.198-10.095 8.019-.108 16.038-.171 24.058-.352 3.094-.072 4.365 1.281 4.212 4.303-.117 2.039-.054 4.087-.072 6.144z" fill="#B6E4F8"/><path d="M465.94 270.377c1.299 1.281 2.589 2.562 3.888 3.834-1.624 2.408-2.616 5.304-5.331 6.874.325-3.23-1.705-5.837-2.346-8.814.803-1.551 1.922-2.471 3.789-1.894z" fill="#099B7C"/><path d="M486.128 168.349c.018 1.371-.559 2.409-1.957 2.517-1.435.108-2.228-.911-2.228-2.237.009-1.344.875-2.228 2.273-2.237 1.218 0 1.804.793 1.912 1.957zm-9.814-2.047c1.515.415 2.408 1.163 2.273 2.544-.135 1.344-1.073 2.237-2.418 1.975-1.298-.243-1.912-1.299-1.677-2.688.198-1.155.938-1.678 1.822-1.831z" fill="#D1EBEC"/><path d="M457.614 201.295c-11.104 1.461-22.263 2.083-33.457 2.056-21.55-.027-43.092-.027-64.642-.108-1.921-.009-4.167.902-5.674-1.236 10.04-4.664 20.071-9.328 30.111-13.991 2.138 1.669 4.628.884 6.919.802 10.346-.342 20.738 1.065 31.04-.748 11.898 4.402 23.796 8.813 35.703 13.225z" fill="#B6E4F8"/><path d="M353.841 201.998c1.507 2.138 3.753 1.236 5.674 1.236 21.55.09 43.092.09 64.642.108-5.972 1.895-12.187.983-18.267 1.407-21.965 1.516-43.966 2.49-65.949 3.672 4.293-2.86 9.074-4.691 13.9-6.423z" fill="#FBFCFC"/><path d="M397.474 407.072c-.686 1.795-1.948 2.4-3.888 2.706-6.251.993-12.403 1.913-18.014-2.138-.018-5.105.253-10.238-.171-15.317-.244-2.923.649-3.419 3.193-3.374 6.81.099 13.621 0 20.432-.027.171 2.598.414 5.205-.262 7.767l.009.126c.234.596.469 1.182.704 1.777-.163.334-.325.677-.479 1.011-.983.992-.424 2.237-.55 3.365a384.218 384.218 0 00-.974 4.104z" fill="#FCBE55"/><path d="M406.702 376.698c.099-4.501 6.134-7.415 10.843-5.376 3.897 1.696 6.756 4.041 6.504 8.741-.289 5.394-3.04 8.074-10.221 10.058-3.843-2.553 1.371-4.447.235-7.559-.37-1.669-4.222 3.112-3.5-.542.758-3.888-1.308-4.483-3.861-5.322z" fill="#0C0A0A"/><path d="M320.628 370.492c4.672.099 8.713 4.384 8.497 9.03-.207 4.402-3.897 7.532-8.786 7.451-5.007-.081-7.839-3.103-7.695-8.2.145-4.808 3.582-8.371 7.984-8.281z" fill="#B6E4F8"/><path d="M269.264 389.156c-6.143-1.11-9.625-4.934-8.903-9.788.695-4.691 4.871-7.523 10.653-7.235.677.037 1.362.028 2.039.028 1.353.009 2.508-2.689 3.924-.569 1.362 2.039-.559 3.446-1.543 4.971-2.372.162-4.636.37-3.211 3.807.361.866.731 2.074-.325 2.679-.992.568-2.39-2.219-3.265.081-.622 1.633 1.615 2.418 1.75 3.978.072.975-.343 1.597-1.119 2.048z" fill="#F07045"/><path d="M269.264 389.156c.785-.46 1.2-1.074 1.11-2.048-.135-1.561-2.373-2.345-1.75-3.978.875-2.301 2.273.487 3.265-.081 1.065-.605.686-1.805.325-2.68-1.425-3.437.839-3.644 3.211-3.807 2.842 4.854 3.167 9.716.064 14.587l-5.819 1.002-.406-2.995zm137.438-12.458c2.562.839 4.628 1.435 3.861 5.332-.722 3.653 3.121-1.128 3.5.541 1.145 3.112-4.069 4.997-.235 7.559v2.914c-1.732-.234-3.473-.478-5.214-.712-5.015-4.682-2.995-10.212-1.912-15.634z" fill="#EFA59B"/><path d="M292.032 382.806c-1.244.009-2.498.009-3.193 1.335-.83-.144-1.66-.424-2.481-.406-1.335.045-2.823.55-3.436-1.209-.56-1.615.469-2.535 1.741-3.22 3.572-1.913 5.475-5.431 8.055-8.282 1.551 3.212 3.094 6.423 4.637 9.626-1.768.74-4.691-1.389-5.323 2.156z" fill="#FCBE55"/><path d="M297.364 380.649c-1.543-3.211-3.095-6.414-4.637-9.625.424-2.706 1.876-3.554 4.321-2.246 2.625 1.407 5.169 8.055 4.33 10.978-.812 2.77-2.481 1.516-4.014.893zm101.4 16.175l-.009-.127.009.127zm-208.042-128.54c-.721 2.057-.442 4.159-.27 6.252-.136.748-.271 1.497-.397 2.246-3.618-.46-7.19.604-10.717.55-4.519-.072-4.907 2.003-4.979 5.611-.135 7.524.839 15.11-1.056 22.553-3.491.198-6.909.748-10.148 2.138-2.733.405-5.466.802-8.208 1.208-1.345-.117-2.68-.189-3.888.569-.704-.145-1.399-.28-2.102-.424-.947-1.335-1.498-2.797-1.344-4.466 1.227-1.037 2.444-2.075 3.662-3.103 4.077-.704 8.137-1.443 11.952-3.139 2.725-.379 6.189.352 6.766-3.69.947-6.675 1.669-13.387 2.49-20.081l.36.019c.569-.695.515-1.426.145-2.184-.045-2.625-.081-5.241-.127-7.866.875-3.13-1.055-6.098-.532-9.21 3.708-.866 6.684-2.147 6.251-7.001-.144-1.605 1.317-3.355 2.048-5.033.776-.036 1.552-.081 2.327-.127.28.145.578.28.875.379-.189.641-.252 1.372-.604 1.913-.74 1.127-2.093 2.156-1.1 3.608.947 1.38 2.399 1.741 4.104 1.083.758-.298 1.678-.19 2.526-.271l1.894 15.606c-.415.966-.46 1.922.072 2.86z" fill="#F07045"/><path d="M163.246 298.279c-3.816 1.696-7.885 2.436-11.953 3.14-.045-4.782-.099-9.563-.144-14.344.216 0 .433-.036.64-.099 3.618.036 7.1-.045 7.244-5.079.081-2.796 2.354-4.321 4.059-6.143.027 1.272.045 2.553.072 3.834l.19 5.566c-.045 4.384-.081 8.75-.108 13.125z" fill="#B6E4F8"/><path d="M147.622 304.53c-.144 1.669.397 3.131 1.344 4.466-1.795 1.578-1.236 3.734-1.398 5.719-.145 1.759-1.011 2.914-2.824 2.986-2.264.099-2.201-1.615-2.219-3.175-.018-1.696.172-3.41-.045-5.079-.505-4.06 1.101-5.71 5.142-4.917z" fill="#333A74"/><path d="M151.068 309.42c1.208-.767 2.543-.686 3.888-.568-.506 3.31 1.064 7.451-3.618 9.102-.721-2.833-.388-5.692-.27-8.534z" fill="#6EC8EF"/><path d="M151.78 286.985a2.209 2.209 0 01-.64.099c-.632-2.138-.605-4.276-.036-6.414.965 1.272.442 2.796.721 4.177-.018.712-.027 1.425-.045 2.138z" fill="#49B3D7"/><path d="M329.693 111.445h-1.217c-.154-4.465-.136-8.94-.515-13.387-.315-3.627-.216-7.65-5.268-8.66-1.443-.289-2.913-1.678-1.948-3.527 1.073-2.057 2.904-1.417 4.438-.533.848.487 1.615 1.317 2.129 2.156 2.508 4.087 4.79 3.87 7.027-.207.243-.442.559-.893.947-1.2 1.209-.956 2.499-2.048 4.149-1.516.677.217 1.462 1.101 1.588 1.796.343 1.921-1.227 3.013-2.634 3.274-4.465.857-4.068 4.718-4.862 7.578-1.155.46-.929-.316-1.091-.659-.713-1.47 1.858-4.348-1.155-4.51-3.888-.208-1.985 3.23-2.012 5.025-.099 4.79.253 9.58.424 14.37z" fill="#FBFCFC"/><path d="M406.359 406.729l-3.879-3.636c.83-3.238 3.726-4.781 5.819-6.946 1.335-1.38 3.22-1.443 4.6-.009 1.29 1.344 2.345 2.896.785 4.962-1.949 2.58-3.401 5.674-7.325 5.629z" fill="#49B3D7"/><path d="M398.439 402.967c.126-1.127-.433-2.372.55-3.364.163 1.181.424 2.381-.55 3.364z" fill="#F07045"/><path d="M173.303 305.504c1.886-7.442.911-15.038 1.056-22.552.063-3.609.46-5.683 4.979-5.611 3.518.054 7.099-1.011 10.717-.551.378 4.276-1.886 8.047-2.301 12.17-1.578 2.165-2.002 4.763-2.724 7.244-3.554 10.798-4.402 22.038-5.421 33.251-1.254 1.543-3.067.965-4.664 1.218-.631-.839-1.272-1.678-1.912-2.517.388-3.455.388-6.91-.136-10.356.028-3.717.064-7.442.091-11.159.108-.388.216-.758.315-1.137z" fill="#FCBE55"/><path d="M173.303 305.505c-.108.379-.207.749-.315 1.128-3.275.685-6.549 1.362-9.824 2.047 0-.343-.009-.694-.009-1.037 3.248-1.389 6.666-1.94 10.148-2.138z" fill="#D7D6DF"/><path d="M449.974 228.069c1.714 0 3.428.045 5.141-.009 1.723-.063 3.04.153 3.058 2.372.009 2.102-1.163 2.553-2.94 2.643-5.476.28-10.951.524-16.418.885-20.693 1.371-41.404 2.3-62.106 3.473-7.866.442-15.723 1.091-23.58 1.641-.686.046-1.371.1-2.057.145-1.822.117-2.968-.551-3.085-2.544-.135-2.21 1.254-2.391 2.968-2.499 7.866-.496 15.714-1.164 23.58-1.615 25.149-1.443 50.298-2.823 75.448-4.222 0-.099-.009-.189-.009-.27zm-97.206-4.222c-.857 0-1.723-.009-2.58 0-1.642.027-3.076-.045-3.184-2.319-.118-2.543 1.416-2.625 3.292-2.742 9.084-.541 18.15-1.218 27.233-1.768 18.168-1.092 36.344-2.138 54.521-3.193.685-.037 1.371-.037 2.065-.046 1.624-.018 3.076.028 3.185 2.31.117 2.553-1.444 2.625-3.302 2.733-15.596.938-31.184 1.967-46.772 2.896-11.483.686-22.975 1.263-34.458 1.885v.244zm67.979 26.485c-22.425 1.2-44.841 2.427-67.266 3.563-1.805.09-4.574 1.065-4.529-2.381.036-2.815 2.409-2.436 4.195-2.544a58151.64 58151.64 0 0179.065-4.403c1.371-.072 2.742-.036 4.114-.081 1.641-.045 2.579.713 2.742 2.364.189 1.849-.965 2.435-2.499 2.517-2.399.126-4.799.162-7.198.234-.433-.496.099-2.634-.893-1.488-1.281 1.479-2.111.893-2.815.234-3.166-2.932-4.176-.911-4.916 1.985z" fill="#FBFCFC"/><path d="M468.331 255.222c1.29 2.986 1.47 5.981.099 9.003-.451.623-.893 1.254-1.344 1.876 0 0 .126-.189.126-.18-.64.162-1.082.496-1.082 1.218v-.154c-1.976.56-3.951 1.119-5.936 1.678-1.795-.92-1.137-2.174-.397-3.364.713-1.146 2.787-2.481.451-3.465-1.759-.739-2.598 1.426-2.769 2.842-.271 2.337-1.398 3.69-3.518 4.402-5.277-1.66-3.13-4.492-1.164-7.307 3.338 1.597 4.556-.46 5.241-3.157.803-3.193-1.579-3.545-3.771-3.987-.757-3.176 1.723-3.293 3.627-3.591 4.248-.658 7.568 1.272 10.437 4.186z" fill="#0C0A0A"/><path d="M420.747 250.332c.74-2.896 1.741-4.916 4.916-1.967.704.659 1.534 1.245 2.815-.234.992-1.146.46.992.893 1.488.342 3.69 2.183 6.739 4.212 9.689.253 2.3 1.299 4.222 2.797 5.927.902 4.79 5.168 4.267 8.434 5.34l-1.948 5.142c-4.637-1.633-9.95-2.021-12.268-7.578-1.119-2.688.721-6.215-2.436-8.254.613-5.584-3.599-7.415-7.415-9.553z" fill="#EFA59B"/><path d="M436.389 265.235c-1.498-1.714-2.544-3.636-2.797-5.927l19.241-1.082-.027 3.545c-1.966 2.814-4.113 5.656 1.164 7.307.09.559.171 1.109.261 1.669-.424.288-.857.577-1.28.866-2.138-.081-4.285-.081-6.189-1.29-3.121-2.382-4.934-7.434-10.373-5.088z" fill="#D7D6DF"/><path d="M452.806 261.771l.027-3.545c1.272-.884 1.128-2.337 1.444-3.609 2.192.451 4.573.803 3.77 3.996-.685 2.698-1.903 4.755-5.241 3.158z" fill="#EFA59B"/><path d="M226.146 214.51c2.147.19 2.688 2.327 4.104 3.401-.054 5.963.009 11.935-.216 17.898-.108 2.913.92 3.843 3.798 3.788 8.353-.153 16.724-.27 25.068.037 4.366.162 6.909-.74 6.296-5.666 8.885 9.517 16.463 20.09 24.509 31.511h-91.631l.081-.262c-.036-2.562.172-5.16-.153-7.677-1.074-8.164-1.119-8.083 6.585-10.861 2.661-.965 7.09-1.245 7.415-3.753 1.136-8.759 9.814-15.75 5.917-25.601-.46-1.164-.496-2.752.974-3.663 2.319 1.128 4.709 1.633 7.253.848z" fill="#FEFEFE"/><path d="M182.252 221.916c8.488-7.677 16.995-15.326 25.456-23.048 2.408-2.202 4.357-2.138 6.305.586 1.489 2.075 3.23 3.969 4.853 5.945-.406.37-.811.748-1.208 1.118-4.285-.045-8.561-.099-12.846-.126-1.677-.009-3.599-.388-3.689 2.273-.099 2.842 1.867 2.806 3.816 2.86l9.76.244c0 .225 0 .451.009.685-2.688.262-6.459-.658-4.727 4.817 1.083-2.95 3.365-3.103 5.385-2.273 2.77 1.137.451 3.266.28 4.844-.64 5.999-3.283 11.304-6.414 16.364-.992 1.606-.838 4.258-3.716 4.213 1.479-5.376 2.219-10.987 5.638-15.732 1.2-1.669.938-3.888-1.353-4.628-2.282-.731-2.237 1.38-2.544 2.832-.866 4.078-3.437 7.434-4.799 11.259-1.985 5.584-5.845 8.073-11.492 8.344 1.813-4.944 1.65-9.508-.325-14.704-1.75-4.565-3.942-6.243-8.389-5.873z" fill="#FBFCFC"/><path d="M265.205 233.978c.613 4.925-1.939 5.827-6.296 5.665-8.344-.316-16.715-.19-25.068-.036-2.878.054-3.906-.875-3.798-3.789.225-5.963.162-11.935.216-17.898 3.121-.153 6.243-.315 9.355-.469 4.104 0 8.208-.009 12.313-.009 4.104.893 9.489-1.768 12.178 1.462 2.57 3.094.559 8.281.857 12.53.063.839.162 1.687.243 2.544zm-21.18-12.134c-1.687.009-2.391.506-2.373 1.498.064 3.906-1.641 8.696.767 11.43 1.867 2.119 5.358-1.678 8.182-2.68 1.443-.514 2.805-1.299 4.167-2.038 1.056-.569 1.687-1.814.596-2.427-3.87-2.174-7.902-4.06-11.339-5.783z" fill="#F07045"/><path d="M284.798 209.458c-.009-6.18 4.799-11.186 10.852-11.285 6.648-.109 11.952 5.078 11.799 11.537-.136 5.837-5.413 11.033-11.285 11.096-6.342.072-11.357-4.934-11.366-11.348z" fill="#FBFCFC"/><path d="M182.252 221.917c4.438-.361 6.639 1.308 8.371 5.881 1.975 5.196 2.138 9.752.325 14.705-2.219 1.398-4.673 1.172-7.109 1.001a7.624 7.624 0 01-.875-.379c-.009-.839-.387-2.03.028-2.454 5.304-5.475 1.262-9.661-1.805-14 .65-1.137.668-2.292.1-3.455.324-.442.64-.875.965-1.299z" fill="#D7D6DF"/><path d="M251.927 217.423c-4.105 0-8.209.009-12.313.009.433-.505.821-1.055 1.299-1.524 6.161-6.053 6.513-6.008 11.014 1.515z" fill="#FBFCFC"/><path d="M190.722 268.284c-.532-.947-.487-1.894-.063-2.86 2.499-.072 4.997-.135 7.505-.207l-.081.261c.036.866.072 1.732.099 2.589-2.489.082-4.97.145-7.46.217z" fill="#49B3D7"/><path d="M217.649 206.517c.406-.37.811-.749 1.208-1.119l5.196 6.144-2.192.108c-1.082-.072-2.174-.135-3.256-.208-.316-1.632-.632-3.283-.956-4.925z" fill="#D7D6DF"/><path d="M221.861 211.659l2.201-.108c1.236.613 1.84 1.66 2.093 2.959-2.544.794-4.943.288-7.262-.848v-1.065c1.083-.018 2.238.181 2.968-.938zm213.752 99.231c-30.58-.081-61.151-.162-91.73-.234-1.714 0-3.437 0-5.151-.009-1.606-.009-3.257-.045-3.202-2.301.036-1.93 1.272-2.697 3.031-2.778 1.371-.063 2.751-.036 4.122-.036 31.608-.036 63.225-.063 94.833-.099.072.261.136.532.172.812-.812 1.344-1.335 2.778-1.308 4.375a3.69 3.69 0 00-.767.27zm-55.377 15.2c-13.216 0-26.44.018-39.655-.018-1.957-.009-4.718.623-4.88-2.318-.189-3.437 2.814-2.779 4.916-2.779 26.782-.036 53.564-.036 80.347-.009 1.957 0 4.717-.613 4.88 2.328.189 3.455-2.824 2.76-4.908 2.769-13.576.045-27.133.027-40.7.027z" fill="#FBFCFC"/><path d="M380.524 295.202c-13.386 0-26.764.045-40.15-.054-1.759-.009-4.745 1.173-4.7-2.183.045-2.923 2.769-1.949 4.429-1.949 27.107-.063 54.223-.063 81.33 0 1.659 0 4.384-.983 4.438 1.94.072 3.365-2.923 2.192-4.682 2.201-13.558.09-27.116.045-40.665.045z" fill="#FEFEFE"/><path d="M437.679 306.244a4.93 4.93 0 00-.172-.803c-.315-8.47.893-16.86 1.317-25.285 2.264-1.011 5.07.712 7.109-1.417.487.316.983.623 1.479.938-1.976 8.146-1.696 16.428-1.416 24.7-.343.676-.677 1.353-1.02 2.03l-7.297-.163zm-2.066 4.646a4.59 4.59 0 01.758-.28c2.354.054 4.708.1 7.063.154-3.383 7.875-5.539 15.895-3.013 24.492-2.372.027-4.745.054-7.117.09-3.374-6.08-2.093-12.151.027-18.223.73-2.083 1.524-4.158 2.282-6.233z" fill="#6EC8EF"/><path d="M447.412 279.678c-.496-.316-.983-.623-1.479-.938-1.11-.921-3.491-.542-3.067-3.022.649-1.714 1.298-3.428 1.957-5.142.64-.082 1.29-.163 1.93-.244 1.904 1.209 4.06 1.209 6.188 1.29 2.156 1.308 3.816 2.896 2.995 5.728-.866 2.977-3.373 2.228-5.475 2.337-1.01.054-2.03 0-3.049-.009z" fill="#099B7C"/><path d="M181.187 226.661c3.067 4.339 7.109 8.516 1.805 14.001-.415.424-.037 1.623-.028 2.453-.775.045-1.551.082-2.327.127-1.642-2.788-.767-6.838-4.393-8.669-.289-.145-.135-1.173-.189-1.787 4.167.018 2.525-4.835 5.132-6.125z" fill="#EFA59B"/><path d="M163.345 285.162l-.19-5.566c1.696-1.723 2.634-3.806 3.004-6.179l-.018.054c.911-.424 1.065-1.227 1.065-2.111l-.037.063c1.002-.523 1.056-1.461 1.065-2.417.55-2.535 2.481-3.645 4.636-4.52.037 2.625.082 5.251.127 7.867-.56.694-.605 1.425-.145 2.183l-.36-.018c-3.843 1.903-5.765 5.286-6.035 9.282-.208 3.311-2.156.803-3.112 1.362z" fill="#D7D6DF"/><path d="M166.159 273.417c-.37 2.364-1.308 4.457-3.004 6.18-.027-1.281-.045-2.553-.072-3.834.659-1.272 1.326-2.517 3.076-2.346z" fill="#FBFCFC"/><path d="M167.206 271.352c0 .884-.163 1.687-1.065 2.11-.207-.983.036-1.741 1.065-2.11z" fill="#FBFCFC"/><path d="M168.234 268.997c-.009.956-.072 1.894-1.065 2.418-.108-1.002.343-1.768 1.065-2.418z" fill="#FBFCFC"/><path d="M456.18 335.184l-6.125.162c-2.878-8.29-2.661-9.653 2.49-14.1 2.426 4.393 3.671 8.985 3.635 13.938z" fill="#6EC8EF"/><path d="M443.434 310.772c-2.355-.054-4.709-.099-7.063-.153-.027-1.597.496-3.022 1.308-4.366l7.297.162c-.514 1.444-1.028 2.896-1.542 4.357z" fill="#D7D6DF"/><path d="M454.222 270.747c-.09-.559-.171-1.109-.261-1.669 2.12-.712 3.238-2.065 3.518-4.402.171-1.416 1.01-3.581 2.769-2.842 2.345.984.262 2.319-.451 3.465-.74 1.19-1.398 2.444.397 3.364l-.108 2.851c-1.949-.262-3.906-.514-5.864-.767z" fill="#EFA59B"/><path d="M460.095 271.504l.108-2.851 5.927-1.677-.19 3.401c-1.867-.578-2.986.333-3.788 1.885-.794.054-1.552 0-2.057-.758zm6.991-5.403c.451-.622.893-1.254 1.344-1.876-.117.857-.081 1.831-1.344 1.876z" fill="#D7D6DF"/><path d="M466.13 267.139c0-.722.451-1.056 1.082-1.218.063.776-.244 1.227-1.082 1.218zm-247.237-54.551c0 .361 0 .713-.009 1.074-1.47.911-1.434 2.499-.974 3.662 3.897 9.86-4.781 16.842-5.917 25.602-.325 2.508-4.745 2.787-7.415 3.753-7.704 2.778-7.65 2.697-6.585 10.861.333 2.526.117 5.115.153 7.677-2.499.072-5.006.135-7.505.207l-1.894-15.606c3.265-2.21 7.117-2.959 10.797-3.987 3.076-.866 5.178-2.265 5.936-5.413 2.877.045 2.724-2.607 3.716-4.213 3.13-5.07 5.773-10.365 6.414-16.364.171-1.579 2.49-3.708-.28-4.844-2.02-.83-4.303-.686-5.385 2.273-1.732-5.476 2.039-4.546 4.727-4.808 1.416.036 2.823.081 4.221.126z" fill="#D7D6DF"/><path d="M205.507 240.419c-.767 3.148-2.869 4.555-5.936 5.412-3.68 1.029-7.532 1.777-10.797 3.988-.848.081-1.768-.027-2.526.27-1.696.659-3.157.307-4.104-1.082-.993-1.453.36-2.481 1.1-3.609.352-.541.415-1.272.604-1.912 2.445.171 4.89.388 7.109-1.001 5.647-.271 9.507-2.761 11.492-8.345 1.362-3.825 3.933-7.19 4.799-11.258.307-1.443.261-3.563 2.544-2.833 2.291.74 2.552 2.959 1.353 4.628-3.428 4.745-4.159 10.356-5.638 15.742z" fill="#EFA59B"/><path d="M163.345 285.162c.956-.559 2.904 1.958 3.121-1.362.261-4.005 2.192-7.379 6.035-9.282-.821 6.693-1.543 13.405-2.49 20.08-.568 4.033-4.041 3.311-6.766 3.69.028-4.384.064-8.75.1-13.126z" fill="#FBFCFC"/><path d="M172.861 274.536c-.46-.767-.415-1.489.145-2.183.37.748.424 1.488-.145 2.183z" fill="#EFA59B"/><path d="M446.753 270.323c-.64.081-1.29.162-1.93.244-3.266-1.065-7.532-.551-8.434-5.341 5.439-2.336 7.252 2.716 10.364 5.097z" fill="#FBFCFC"/><path d="M217.649 206.517l.947 4.934c-1.308.109-2.616.208-3.924.316l-9.76-.243c-1.949-.046-3.915-.018-3.816-2.86.099-2.661 2.011-2.282 3.689-2.273 4.303.027 8.588.081 12.864.126z" fill="#FCBE55"/><path d="M214.681 211.768c1.308-.108 2.616-.208 3.924-.316 1.082.072 2.174.135 3.256.208-.739 1.127-1.885.92-2.968.929l-4.203-.136c-.009-.234-.009-.46-.009-.685z" fill="#FEFEFE"/><path d="M244.025 221.844c3.437 1.723 7.469 3.608 11.33 5.791 1.091.614.46 1.859-.596 2.427-1.362.74-2.715 1.524-4.167 2.039-2.824 1.001-6.315 4.799-8.182 2.679-2.408-2.734-.703-7.533-.767-11.43-.009-1.001.695-1.497 2.382-1.506z" fill="#FBFCFC"/></svg>

