<svg width="60" height="44" fill="none" xmlns="http://www.w3.org/2000/svg"><path d="M19.946 3.793C23.235 7.313 25 11.26 25 17.659 25 28.919 17.156 39.01 5.75 44l-2.851-4.433c10.646-5.804 12.728-13.335 13.558-18.083-1.714.894-3.959 1.206-6.158 1C4.539 21.947 0 17.182 0 11.26c0-2.986 1.177-5.85 3.273-7.962A11.13 11.13 0 0111.173 0a12.27 12.27 0 014.765 1.008 12.356 12.356 0 014.008 2.785zm35 0C58.235 7.313 60 11.26 60 17.659 60 28.919 52.156 39.01 40.75 44l-2.851-4.433c10.646-5.804 12.728-13.335 13.558-18.083-1.714.894-3.959 1.206-6.158 1C39.539 21.947 35 17.182 35 11.26c0-2.986 1.177-5.85 3.273-7.962A11.13 11.13 0 0146.173 0a12.27 12.27 0 014.765 1.008 12.356 12.356 0 014.008 2.785z" fill="#FDB92D"/></svg>

