<svg width="18" height="31" viewBox="0 0 18 31" fill="none" xmlns="http://www.w3.org/2000/svg">
<path d="M3.63862 28.3277C1.2711 25.8481 0 23.067 0 18.5587C0 10.6257 5.64755 3.51546 13.8603 0L15.9129 3.12335C8.24722 7.21225 6.74856 12.5183 6.15094 15.8638C7.38526 15.2337 9.00115 15.0138 10.5849 15.1589C14.7315 15.5374 18 18.8942 18 23.067C18 25.1709 17.1524 27.1887 15.6437 28.6765C14.135 30.1642 12.0887 31 9.95505 31C8.7751 30.9898 7.60899 30.7483 6.5246 30.2896C5.4402 29.8308 4.45917 29.1639 3.63862 28.3277Z" fill="#3C2DDE" fill-opacity="0.5"/>
</svg>
