<svg width="36" height="63" viewBox="0 0 36 63" fill="none" xmlns="http://www.w3.org/2000/svg">
<path d="M28.7228 5.4308C33.4578 10.4701 36 16.122 36 25.2838C36 41.4058 24.7049 55.8557 8.2794 63L4.17418 56.6526C19.5056 48.3428 22.5029 37.5596 23.6981 30.7607C21.2295 32.0412 17.9977 32.488 14.8303 32.1932C6.5371 31.424 -4.57847e-07 24.6021 2.83511e-07 16.122C6.57314e-07 11.8462 1.69518 7.74546 4.71262 4.72201C7.73007 1.69856 11.8226 -2.11366e-06 16.0899 -1.7406e-06C18.4498 0.0206665 20.782 0.511458 22.9508 1.44381C25.1196 2.37617 27.0817 3.73146 28.7228 5.4308Z" fill="#3C2DDE" fill-opacity="0.7"/>
</svg>
