<svg width="163" height="163" fill="none" xmlns="http://www.w3.org/2000/svg"><circle cx="81.5" cy="81.5" r="81.5" fill="#FFEAC0"/><path d="M68.5 57.5h46.716c1.399 0 2.743.563 3.734 1.568a5.402 5.402 0 011.55 3.795V91.5h-52v-34z" stroke="#3F3D56"/><path d="M66.5 57.5c3.176 0 6.227 1.31 8.479 3.65 2.252 2.34 3.521 5.517 3.521 8.833v15.663a5.98 5.98 0 01-1.652 4.146 5.504 5.504 0 01-3.966 1.708H60.117a5.504 5.504 0 01-3.965-1.708 5.98 5.98 0 01-1.652-4.146V69.983c0-3.316 1.269-6.494 3.521-8.834C60.273 58.81 63.324 57.5 66.5 57.5z" stroke="#777"/><path opacity=".2" d="M66.5 57.5c3.176 0 6.227 1.31 8.479 3.65 2.252 2.34 3.521 5.517 3.521 8.833v15.663a5.98 5.98 0 01-1.652 4.146 5.504 5.504 0 01-3.966 1.708H60.117a5.504 5.504 0 01-3.965-1.708 5.98 5.98 0 01-1.652-4.146V69.983c0-3.316 1.269-6.494 3.521-8.834C60.273 58.81 63.324 57.5 66.5 57.5z" stroke="#000"/><path d="M101 53H91v17h4.54v-9.38H101V53z" fill="#F3F3F3"/><path d="M94.375 59.224h-.5V67.5H91.5v-14h8v5.724h-5.125z" stroke="#3F3D56"/><path d="M53.582 63.623l-1.34 11.01 17.906 2.18 1.34-11.01-17.906-2.18z" fill="url(#paint0_linear)"/><path d="M52.797 73.98l1.19-9.779 16.801 2.046-1.19 9.778-16.801-2.046z" fill="#FEDE9C" stroke="#3F3D56" stroke-width=".5"/><path opacity=".6" d="M54.222 66.43l2.202.267.198-1.63-2.202-.267-.198 1.63zm1.42 3.389l8.451 1.029.064-.529-8.45-1.029-.065.529zm2.15 1.424l6.162.75.043-.352-6.162-.75-.043.352z" fill="#FDB92D"/><path d="M42.65 88H81v5H38c0-1.326.49-2.598 1.362-3.535.872-.938 2.054-1.465 3.287-1.465z" fill="#F2F2F2"/><path d="M60.877 66.044l-1.339 11.01 17.906 2.18 1.339-11.009-17.906-2.18z" fill="url(#paint1_linear)"/><path d="M60.093 76.402l1.19-9.778 16.801 2.047-1.19 9.778-16.801-2.047z" fill="#FEDE9C" stroke="#3F3D56" stroke-width=".5"/><path opacity=".6" d="M61.52 68.853l2.2.268.199-1.63-2.202-.268-.198 1.63zm1.419 3.389l8.45 1.03.065-.529-8.451-1.03-.064.53zm2.147 1.424l6.162.75.043-.351-6.162-.75-.043.351z" fill="#FDB92D"/><path d="M45.376 67.08l-1.815 14.923 24.27 2.955 1.815-14.923-24.27-2.956z" fill="url(#paint2_linear)"/><path d="M44.214 81.195l1.634-13.432L68.8 70.558 67.165 83.99l-22.951-2.795z" fill="#FEDE9C" stroke="#3F3D56" stroke-width=".5"/><path opacity=".6" d="M46.245 70.882l2.983.364.27-2.208-2.984-.364-.269 2.208zm1.922 4.596l11.456 1.396.088-.717-11.456-1.395-.088.716zm2.916 1.93l8.353 1.017.058-.478-8.353-1.017-.058.478z" fill="#FDB92D"/><path d="M55.266 70.362L53.45 85.285l24.27 2.956 1.816-14.924-24.27-2.955z" fill="url(#paint3_linear)"/><path d="M54.102 84.48l1.634-13.432 22.952 2.795-1.635 13.432-22.95-2.795z" fill="#FEDE9C" stroke="#3F3D56" stroke-width=".5"/><path opacity=".6" d="M56.134 74.167l2.984.364.269-2.208-2.984-.364-.269 2.208zm1.922 4.596l11.457 1.395.087-.716-11.456-1.395-.087.716zm2.915 1.93l8.354 1.017.058-.478-8.353-1.017-.059.478z" fill="#FDB92D"/><path opacity=".2" d="M65.969 57a12.849 12.849 0 00-4.969.996 12.891 12.891 0 016.84.87 13.02 13.02 0 014.227 2.86 13.206 13.206 0 012.825 4.28c.655 1.601.992 3.317.992 5.05V92H79V70.195c0-3.5-1.373-6.856-3.817-9.33A12.95 12.95 0 0065.97 57z" fill="#000"/><path d="M42.433 87.5H78.5v4H38.524c.1-1.025.507-1.98 1.148-2.704.744-.838 1.739-1.296 2.761-1.296z" stroke="#3F3D56"/><path opacity=".2" d="M42.433 87.25H78.75v4.5H38.256c.054-1.177.493-2.29 1.23-3.12.787-.888 1.848-1.38 2.947-1.38z" stroke="#3F3D56" stroke-width=".5"/><path d="M112.488 61.779L112 62l.056-.093-.043.012.061-.041L118.65 51l3.363 2.665 2.885 2.482-.828.375.93 1.526-12.512 3.73z" fill="#F2F2F2"/><path d="M121.574 54L124 56.041 113 61l5.854-6.804 2.72-.196z" fill="#FEDE9C"/><path d="M120.61 54.15l-6.616 5.669 4.431-7.443 2.185 1.773zm1.51 1.197l1.489 2.33-9.073 2.62 7.584-4.95z" stroke="#3F3D56" stroke-width=".5"/><path d="M53.282 60.893L54 61l-.111-.1h.061l-.096-.032L40.803 49l-3.167 4.793L35 58.166l1.22.182-.54 2.368 17.602.177z" fill="#F2F2F2"/><path d="M38.455 53.768L36 57.458 54 60l-11.593-7-3.952.768z" fill="#FEDE9C"/><path d="M38.404 53.822l2.684-3.472 11.427 8.82-14.11-5.349z" stroke="#3F3D56" stroke-width=".5"/><path d="M88 141V93h-6v48h6z" fill="#F2F2F2"/><path d="M38.311 55.319l13.97 4.402-14.965-.254.995-4.148z" stroke="#3F3D56" stroke-width=".5"/><path d="M79.5 92.5h8v46h-8v-46z" stroke="#3F3D56"/><defs><linearGradient id="paint0_linear" x1="-3695.44" y1="6554.33" x2="-3528.16" y2="5180.71" gradientUnits="userSpaceOnUse"><stop stop-color="gray" stop-opacity=".25"/><stop offset=".54" stop-color="gray" stop-opacity=".12"/><stop offset="1" stop-color="gray" stop-opacity=".1"/></linearGradient><linearGradient id="paint1_linear" x1="-3152.39" y1="6814.33" x2="-2985.11" y2="5440.71" gradientUnits="userSpaceOnUse"><stop stop-color="gray" stop-opacity=".25"/><stop offset=".54" stop-color="gray" stop-opacity=".12"/><stop offset="1" stop-color="gray" stop-opacity=".1"/></linearGradient><linearGradient id="paint2_linear" x1="-5656.2" y1="10214.6" x2="-5348.86" y2="7690.86" gradientUnits="userSpaceOnUse"><stop stop-color="gray" stop-opacity=".25"/><stop offset=".54" stop-color="gray" stop-opacity=".12"/><stop offset="1" stop-color="gray" stop-opacity=".1"/></linearGradient><linearGradient id="paint3_linear" x1="-4654.75" y1="10691.6" x2="-4347.4" y2="8167.77" gradientUnits="userSpaceOnUse"><stop stop-color="gray" stop-opacity=".25"/><stop offset=".54" stop-color="gray" stop-opacity=".12"/><stop offset="1" stop-color="gray" stop-opacity=".1"/></linearGradient></defs></svg>

