<svg width="163" height="163" fill="none" xmlns="http://www.w3.org/2000/svg"><circle cx="81.5" cy="81.5" r="81.5" fill="#FFEAC0"/><g clip-path="url(#clip0)"><path d="M67.64 56.483h47.49a5.36 5.36 0 013.802 1.586 5.434 5.434 0 011.576 3.83v28.899H67.641V56.483z" stroke="#3F3D56"/><path d="M66.006 56.483c3.32 0 6.503 1.327 8.851 3.69a12.641 12.641 0 013.668 8.91v15.804c0 1.569-.62 3.072-1.72 4.18a5.851 5.851 0 01-4.151 1.731H59.359a5.852 5.852 0 01-4.15-1.73 5.932 5.932 0 01-1.722-4.181V69.084c0-3.343 1.32-6.548 3.668-8.911a12.478 12.478 0 018.851-3.69z" stroke="#777"/><path opacity=".2" d="M66.006 56.483c3.32 0 6.503 1.327 8.851 3.69a12.641 12.641 0 013.668 8.91v15.804c0 1.569-.62 3.072-1.72 4.18a5.851 5.851 0 01-4.151 1.731H59.359a5.852 5.852 0 01-4.15-1.73 5.932 5.932 0 01-1.722-4.181V69.084c0-3.343 1.32-6.548 3.668-8.911a12.478 12.478 0 018.851-3.69z" stroke="#000"/><path d="M100.68 51.285H89.926v17.941h4.881v-9.898h5.873v-8.043z" fill="#F3F3F3"/><path d="M94.17 58.19h-.5v9.113h-2.396V51.785h8.056v6.405h-5.16z" stroke="#3F3D56"/><path d="M53.093 62.725l-1.34 11.069 17.9 2.192 1.338-11.069-17.898-2.192z" fill="url(#paint0_linear)"/><path d="M52.308 73.139l1.19-9.833 16.795 2.057-1.19 9.833-16.795-2.057z" fill="#FEDE9C" stroke="#3F3D56" stroke-width=".5"/><path opacity=".6" d="M53.733 65.547l2.2.27.198-1.639-2.2-.27-.198 1.639zm1.419 3.408l8.448 1.034.064-.53-8.448-1.036-.064.532zm2.149 1.431l6.16.755.043-.354-6.16-.754-.043.353z" fill="#FDB92D"/><path d="M42.826 87.218h37.359v4.558H38.297c0-1.21.477-2.368 1.327-3.223a4.515 4.515 0 013.202-1.335z" fill="#F2F2F2"/><path d="M60.386 65.16l-1.34 11.068 17.9 2.193 1.338-11.069-17.898-2.192z" fill="url(#paint1_linear)"/><path d="M59.6 75.575l1.19-9.833 16.795 2.057-1.189 9.833-16.795-2.057z" fill="#FEDE9C" stroke="#3F3D56" stroke-width=".5"/><path opacity=".6" d="M61.026 67.983l2.201.27.198-1.638-2.2-.27-.199 1.638zm1.42 3.408l8.448 1.035.064-.531-8.448-1.035-.064.531zm2.146 1.432l6.16.754.043-.353-6.16-.755-.043.354z" fill="#FDB92D"/><path d="M44.89 66.2l-1.815 15.004 24.26 2.971 1.816-15.003L44.89 66.2z" fill="url(#paint2_linear)"/><path d="M43.728 80.393l1.634-13.507 22.943 2.81-1.634 13.507-22.943-2.81z" fill="#FEDE9C" stroke="#3F3D56" stroke-width=".5"/><path opacity=".6" d="M45.759 70.024l2.982.366.269-2.22-2.983-.366-.268 2.22zm1.921 4.621l11.452 1.402.087-.72-11.452-1.403-.087.72zm2.914 1.94l8.35 1.022.059-.48-8.35-1.023-.059.48z" fill="#FDB92D"/><path d="M54.776 69.5l-1.815 15.004 24.26 2.971 1.816-15.003-24.26-2.971z" fill="url(#paint3_linear)"/><path d="M53.613 83.696l1.633-13.507L78.19 73l-1.634 13.507-22.942-2.81z" fill="#FEDE9C" stroke="#3F3D56" stroke-width=".5"/><path opacity=".6" d="M55.644 73.327l2.983.365.268-2.22-2.982-.365-.269 2.22zm1.922 4.62l11.451 1.403.088-.72-11.452-1.403-.087.72zm2.914 1.94l8.35 1.023.058-.48-8.35-1.024-.058.481z" fill="#FDB92D"/><path opacity=".2" d="M65.868 56.126a12.905 12.905 0 00-4.964.989 12.95 12.95 0 016.833.863 13.014 13.014 0 014.224 2.84 13.106 13.106 0 012.822 4.25 13.17 13.17 0 01.99 5.013v20.794h3.114V69.226c0-3.474-1.372-6.806-3.814-9.263a12.978 12.978 0 00-9.205-3.837z" fill="#000"/><path d="M41.67 87.24h36.858v3.558H37.671a4.068 4.068 0 011.15-2.37 4.015 4.015 0 012.848-1.187z" stroke="#3F3D56"/><path opacity=".2" d="M41.67 86.99h37.108v4.058h-41.38a4.32 4.32 0 011.246-2.796 4.265 4.265 0 013.025-1.261z" stroke="#3F3D56" stroke-width=".5"/><path d="M109.429 59.263l-.429.21.049-.088-.037.012.053-.04L114.848 49l2.957 2.537 2.538 2.363-.729.358.818 1.453-11.003 3.552z" fill="#F2F2F2"/><path d="M117.513 51.808l2.318 2.164-10.509 5.256 5.593-7.212 2.598-.208z" fill="#FEDE9C"/><path d="M117.135 51.813l-6.839 6.196 4.58-8.134 2.259 1.938zm.951 1.082l1.448 2.608-8.824 2.933 7.376-5.54z" stroke="#3F3D56" stroke-width=".5"/><path d="M59.583 56.004l.69.107-.107-.101h.06l-.093-.032L47.581 44l-3.046 4.838L42 53.25l1.173.183-.52 2.39 16.93.18z" fill="#F2F2F2"/><path d="M45.06 49.09l-2.314 4.037 16.97 2.78-10.93-7.658-3.725.84z" fill="#FEDE9C"/><path d="M45.423 48.983l2.474-3.927 10.534 9.978-13.008-6.051z" stroke="#3F3D56" stroke-width=".5"/><path d="M87.966 140.218V91.483h-7.269v48.735h7.269z" fill="#F2F2F2"/><path d="M44.64 50.708l13.506 4.827-14.467-.279.962-4.548z" stroke="#3F3D56" stroke-width=".5"/><path d="M79.528 91.798h8.057v45.849h-8.057V91.798z" stroke="#3F3D56"/></g><defs><linearGradient id="paint0_linear" x1="-3694.49" y1="6588.22" x2="-3525.37" y2="5207.47" gradientUnits="userSpaceOnUse"><stop stop-color="gray" stop-opacity=".25"/><stop offset=".54" stop-color="gray" stop-opacity=".12"/><stop offset="1" stop-color="gray" stop-opacity=".1"/></linearGradient><linearGradient id="paint1_linear" x1="-3151.65" y1="6849.61" x2="-2982.53" y2="5468.86" gradientUnits="userSpaceOnUse"><stop stop-color="gray" stop-opacity=".25"/><stop offset=".54" stop-color="gray" stop-opacity=".12"/><stop offset="1" stop-color="gray" stop-opacity=".1"/></linearGradient><linearGradient id="paint2_linear" x1="-5654.49" y1="10268.2" x2="-5343.77" y2="7731.27" gradientUnits="userSpaceOnUse"><stop stop-color="gray" stop-opacity=".25"/><stop offset=".54" stop-color="gray" stop-opacity=".12"/><stop offset="1" stop-color="gray" stop-opacity=".1"/></linearGradient><linearGradient id="paint3_linear" x1="-4653.42" y1="10747.6" x2="-4342.71" y2="8210.73" gradientUnits="userSpaceOnUse"><stop stop-color="gray" stop-opacity=".25"/><stop offset=".54" stop-color="gray" stop-opacity=".12"/><stop offset="1" stop-color="gray" stop-opacity=".1"/></linearGradient><clipPath id="clip0"><path fill="#fff" transform="translate(28 33)" d="M0 0h106v106H0z"/></clipPath></defs></svg>

