<svg width="163" height="163" fill="none" xmlns="http://www.w3.org/2000/svg"><circle cx="81.5" cy="81.5" r="81.5" fill="#FFEAC0"/><path d="M76.641 73.273c-.03-1.35-.993-2.377-2.558-2.377s-2.587 1.027-2.587 2.377c0 1.32.992 2.377 2.527 2.377h.03c1.595 0 2.588-1.056 2.588-2.377zM92.833 83.4c0-4.226-2.256-6.193-5.265-6.193-2.427 0-3.515 1.334-4.122 2.272v-1.95H78.87c.06 1.292 0 13.763 0 13.763h4.574v-7.686c0-.411.03-.822.15-1.116.33-.822 1.084-1.672 2.347-1.672 1.656 0 2.318 1.262 2.318 3.112v7.362h4.573V83.4zM76.34 77.53h-4.574v13.762h4.573V77.53z" fill="#F2F2F2"/><path d="M76.534 71.613h0v-.01c-.018-.794-.312-1.518-.856-2.044-.545-.527-1.307-.823-2.203-.823-.893 0-1.667.295-2.223.819-.556.524-.863 1.252-.863 2.058 0 1.609 1.228 2.877 3.027 2.877h.03c.91 0 1.686-.303 2.238-.832a2.8 2.8 0 00.85-2.045zm15.692 18.519h.5V81.74c0-2.2-.588-3.883-1.637-5.021-1.052-1.142-2.513-1.673-4.129-1.673-1.313 0-2.29.363-3.027.873a4.817 4.817 0 00-.595.487V75.37H77.74l.024.523c.03.63.03 4.051.022 7.34a2783.574 2783.574 0 01-.02 5.858l-.001.398v.105l-.001.026v.01h0l.5.003-.5-.003-.002.503h5.575v-8.186c0-.409.033-.731.113-.926l.002-.003c.283-.703.89-1.36 1.883-1.36.68 0 1.097.249 1.366.645.291.427.451 1.088.451 1.968v7.862h5.074zM71.159 75.37h-.5v14.76h5.573V75.37h-5.073zm-4.61-5.198c0-2.988 2.447-5.435 5.434-5.435h18.416c2.987 0 5.433 2.447 5.433 5.435v18.416c0 2.987-2.446 5.433-5.433 5.433H71.983c-2.988 0-5.435-2.446-5.435-5.433V70.173z" fill="#FDB92D" fill-opacity=".8" stroke="#3F3D56"/><mask id="mask0" maskUnits="userSpaceOnUse" x="103" y="30" width="25" height="25"><circle cx="115.302" cy="42.302" r="11.902" fill="#C4C4C4" stroke="#000" stroke-width=".8"/></mask><g mask="url(#mask0)"><path d="M104.341 55.247c.082-5.982 5.044-10.811 11.159-10.811 6.115 0 11.077 4.829 11.158 10.81h-22.317z" fill="#FDB92D" stroke="#000" stroke-width=".3"/></g><circle cx="115.5" cy="38.5" r="4.35" fill="#FDB92D" stroke="#000" stroke-width=".3"/><circle cx="115.5" cy="42.5" r="12.25" stroke="#000" stroke-width=".5"/><mask id="mask1" maskUnits="userSpaceOnUse" x="19" y="60" width="25" height="25"><circle cx="31.302" cy="72.302" r="11.902" fill="#C4C4C4" stroke="#000" stroke-width=".8"/></mask><g mask="url(#mask1)"><path d="M20.341 85.247c.082-5.982 5.044-10.811 11.159-10.811 6.115 0 11.077 4.829 11.158 10.81H20.341z" fill="#FDB92D" stroke="#000" stroke-width=".3"/></g><circle cx="31.5" cy="68.5" r="4.35" fill="#FDB92D" stroke="#000" stroke-width=".3"/><circle cx="31.5" cy="72.5" r="12.25" stroke="#000" stroke-width=".5"/><mask id="mask2" maskUnits="userSpaceOnUse" x="93" y="111" width="25" height="25"><circle cx="105.302" cy="123.302" r="11.902" fill="#C4C4C4" stroke="#000" stroke-width=".8"/></mask><g mask="url(#mask2)"><path d="M94.341 136.247c.082-5.982 5.044-10.811 11.159-10.811 6.115 0 11.077 4.829 11.158 10.811H94.341z" fill="#FDB92D" stroke="#000" stroke-width=".3"/></g><circle cx="105.5" cy="119.5" r="4.35" fill="#FDB92D" stroke="#000" stroke-width=".3"/><circle cx="105.5" cy="123.5" r="12.25" stroke="#000" stroke-width=".5"/></svg>

