<svg width="169" height="169" fill="none" xmlns="http://www.w3.org/2000/svg"><circle cx="84.5" cy="84.5" r="84.5" fill="#FFEAC0"/><path d="M79.305 75.565C79.275 74.108 78.281 73 76.667 73 75.054 73 74 74.108 74 75.565c0 1.424 1.023 2.563 2.606 2.563h.03c1.645 0 2.67-1.14 2.67-2.563zM96 86.489c0-4.56-2.326-6.681-5.429-6.681-2.502 0-3.623 1.438-4.25 2.45v-2.102h-4.717c.062 1.392 0 14.844 0 14.844h4.716v-8.29c0-.444.03-.886.155-1.204.341-.886 1.118-1.804 2.42-1.804 1.707 0 2.39 1.362 2.39 3.357V95H96v-8.51zm-17.006-6.332h-4.716V95h4.716V80.157z" fill="#F2F2F2"/><path d="M79.722 73.793h0v-.01c-.018-.828-.315-1.584-.867-2.135-.555-.554-1.334-.867-2.252-.867-.917 0-1.709.312-2.274.862-.564.55-.874 1.31-.874 2.15 0 1.668 1.236 3.011 3.087 3.011h.03c.934 0 1.727-.321 2.289-.877.56-.554.86-1.313.86-2.134zm16.074 19.54h.5v-8.839c0-2.315-.599-4.084-1.667-5.28-1.073-1.202-2.566-1.764-4.223-1.764-1.345 0-2.346.384-3.099.921a4.964 4.964 0 00-.62.527V77.79H80.98l.024.523c.03.667.03 4.284.022 7.759a2943.812 2943.812 0 01-.02 6.19l-.002.42v.147h0l.5.003-.5-.002-.003.502h5.684v-8.62c0-.433.033-.781.118-.995l.002-.003c.295-.757.924-1.45 1.937-1.45.693 0 1.122.261 1.404.687.303.46.468 1.168.468 2.102v8.28h5.181zM74.231 77.791h-.5v15.54h5.682v-15.54H74.23zM69.5 72.27c0-3.188 2.525-5.771 5.575-5.771h18.851c3.05 0 5.574 2.583 5.574 5.77v19.46c0 3.188-2.524 5.77-5.574 5.77H75.075c-3.05 0-5.575-2.582-5.575-5.77V72.27z" fill="#FDB92D" fill-opacity=".8" stroke="#3F3D56"/><mask id="mask0" maskUnits="userSpaceOnUse" x="99" y="45" width="25" height="25"><circle cx="111.302" cy="57.302" r="11.902" fill="#C4C4C4" stroke="#000" stroke-width=".8"/></mask><g mask="url(#mask0)"><path d="M100.341 70.247c.082-5.982 5.044-10.811 11.159-10.811 6.115 0 11.077 4.829 11.158 10.81h-22.317z" fill="#FDB92D" stroke="#000" stroke-width=".3"/></g><circle cx="111.5" cy="53.5" r="4.35" fill="#FDB92D" stroke="#000" stroke-width=".3"/><circle cx="111.5" cy="57.5" r="12.25" stroke="#000" stroke-width=".5"/><mask id="mask1" maskUnits="userSpaceOnUse" x="43" y="48" width="25" height="25"><circle cx="55.302" cy="60.302" r="11.902" fill="#C4C4C4" stroke="#000" stroke-width=".8"/></mask><g mask="url(#mask1)"><path d="M44.342 73.247c.081-5.982 5.043-10.811 11.158-10.811 6.115 0 11.077 4.829 11.159 10.81H44.34z" fill="#FDB92D" stroke="#000" stroke-width=".3"/></g><circle cx="55.5" cy="56.5" r="4.35" fill="#FDB92D" stroke="#000" stroke-width=".3"/><circle cx="55.5" cy="60.5" r="12.25" stroke="#000" stroke-width=".5"/><mask id="mask2" maskUnits="userSpaceOnUse" x="77" y="102" width="25" height="25"><circle cx="89.302" cy="114.302" r="11.902" fill="#C4C4C4" stroke="#000" stroke-width=".8"/></mask><g mask="url(#mask2)"><path d="M78.341 127.247c.082-5.982 5.044-10.811 11.159-10.811 6.115 0 11.077 4.829 11.158 10.811H78.341z" fill="#FDB92D" stroke="#000" stroke-width=".3"/></g><circle cx="89.5" cy="110.5" r="4.35" fill="#FDB92D" stroke="#000" stroke-width=".3"/><circle cx="89.5" cy="114.5" r="12.25" stroke="#000" stroke-width=".5"/></svg>

