<svg width="166" height="166" fill="none" xmlns="http://www.w3.org/2000/svg"><circle cx="83" cy="83" r="83" fill="#FFEAC0"/><g clip-path="url(#clip0)"><path d="M34.413 56.689a.823.823 0 10-.001-1.646.823.823 0 00.001 1.646zm2.82 0a.823.823 0 10-.002-1.646.823.823 0 00.002 1.646zm2.819 0a.823.823 0 10-.002-1.646.823.823 0 00.002 1.646z" fill="#7D7B8C"/><path d="M118.054 100.939h-78.59v9.297h78.59v-9.297zm6.989-32.069H78.289v23.772h46.754V68.869z" fill="#F2F2F2"/><path d="M86.496 90.465l10.589-17.712 10.984 17.712" fill="#FDB92D"/><path d="M102.547 81.403l2.115-5.531 11.982 14.593h-14.155l.058-9.062zm-2.226-2.198a2.94 2.94 0 001.368-2.97 2.95 2.95 0 00-2.217-2.401 2.932 2.932 0 00-2.221.355" fill="#FDB92D"/><path d="M130.858 53.747H32.181v64.256h98.677V53.747z" stroke="#3F3D56" stroke-miterlimit="10"/><path d="M32.181 57.316h98.677m-96.21-.98a.823.823 0 10-.002-1.646.823.823 0 00.002 1.646zm2.82 0a.823.823 0 10-.002-1.646.823.823 0 00.002 1.646zm2.819 0a.823.823 0 10-.002-1.646.823.823 0 00.002 1.646z" stroke="#3F3D56" stroke-width=".5" stroke-miterlimit="10"/><path d="M68.128 71.458H34.06v2.472h34.067v-2.472zm0 5.885H34.06v2.471h34.067v-2.471zm0 5.884H34.06v2.471h34.067v-2.47z" fill="#F2F2F2"/><path d="M69.303 70.635H35.236v2.47h34.067v-2.47zm0 5.884H35.236v2.471h34.067v-2.47zm0 5.884H35.236v2.472h34.067v-2.472zm58.501-16.535H81.05v23.773h46.754V65.868zm-6.99 32.952H42.225v9.298h78.589v-9.297z" stroke="#3F3D56" stroke-width=".5" stroke-miterlimit="10"/><path d="M87.083 89.641l10.59-17.712 10.983 17.712m-5.756-9.297l2.114-5.531 11.982 14.828" stroke="#3F3D56" stroke-width=".3" stroke-miterlimit="10"/><path d="M101.143 77.558a2.942 2.942 0 00-1.995-5.415c-.38.06-.746.196-1.075.398" stroke="#3F3D56" stroke-width=".3" stroke-miterlimit="10"/></g><defs><clipPath id="clip0"><path fill="#fff" transform="translate(19.13 53.688)" d="M0 0h128.357v72.201H0z"/></clipPath></defs></svg>

